<?xml version="1.0" encoding="UTF-8"?>
<!DOCTYPE svg PUBLIC "-//W3C//DTD SVG 1.1//EN" "http://www.w3.org/Graphics/SVG/1.1/DTD/svg11.dtd">
<svg xmlns="http://www.w3.org/2000/svg" version="1.1" width="713px" height="439px" style="shape-rendering:geometricPrecision; text-rendering:geometricPrecision; image-rendering:optimizeQuality; fill-rule:evenodd; clip-rule:evenodd" xmlns:xlink="http://www.w3.org/1999/xlink">
<g><path style="opacity:0.239" fill="#777777" d="M 313.5,108.5 C 312.833,108.5 312.167,108.5 311.5,108.5C 305.086,100.23 296.753,97.5632 286.5,100.5C 287.23,98.955 288.563,98.1216 290.5,98C 300.816,96.0666 308.482,99.5666 313.5,108.5 Z"/></g>
<g><path style="opacity:1" fill="#f5f5f5" d="M 311.5,108.5 C 313.136,110.28 313.303,111.947 312,113.5C 309.667,109.833 306.667,106.833 303,104.5C 303.013,109.601 305.18,113.601 309.5,116.5C 314.988,125.828 321.655,134.161 329.5,141.5C 333.402,146.96 337.069,152.627 340.5,158.5C 338.955,159.452 337.288,159.785 335.5,159.5C 335.649,158.448 335.483,157.448 335,156.5C 322.583,141.067 310.083,125.567 297.5,110C 296.207,109.51 294.873,109.343 293.5,109.5C 293.351,110.552 293.517,111.552 294,112.5C 303.242,123.327 312.242,134.327 321,145.5C 323.729,149.388 326.229,153.388 328.5,157.5C 330.186,158.857 331.852,160.19 333.5,161.5C 333.167,162.5 332.5,163.167 331.5,163.5C 329.856,163.714 328.356,163.38 327,162.5C 320.088,153.795 313.588,144.795 307.5,135.5C 302.31,131.983 298.644,127.316 296.5,121.5C 295.675,120.614 294.675,120.281 293.5,120.5C 292.614,116.963 290.281,115.296 286.5,115.5C 286.351,116.552 286.517,117.552 287,118.5C 300.545,134.377 313.712,150.543 326.5,167C 324.945,168.289 323.279,168.956 321.5,169C 311.013,155.516 300.179,142.349 289,129.5C 287.662,126.716 285.829,124.216 283.5,122C 282.552,121.517 281.552,121.351 280.5,121.5C 280.12,124.792 281.453,127.125 284.5,128.5C 287.742,134.604 287.075,135.938 282.5,132.5C 276.862,126.149 275.362,118.816 278,110.5C 280.298,106.851 282.798,103.518 285.5,100.5C 285.833,100.5 286.167,100.5 286.5,100.5C 296.753,97.5632 305.086,100.23 311.5,108.5 Z"/></g>
<g><path style="opacity:0.227" fill="#5f5f5f" d="M 313.5,108.5 C 315.543,109.579 316.876,111.246 317.5,113.5C 315.003,112.871 313.67,111.204 313.5,108.5 Z"/></g>
<g><path style="opacity:0.533" fill="#848484" d="M 285.5,100.5 C 282.798,103.518 280.298,106.851 278,110.5C 275.362,118.816 276.862,126.149 282.5,132.5C 282.5,133.5 282.5,134.5 282.5,135.5C 281.504,135.586 280.671,135.252 280,134.5C 278.693,131.592 277.193,128.759 275.5,126C 272.389,114.752 275.723,106.252 285.5,100.5 Z"/></g>
<g><path style="opacity:0.502" fill="#646464" d="M 318.5,115.5 C 322.594,117.603 325.26,120.937 326.5,125.5C 325.26,120.937 322.594,117.603 318.5,115.5 Z"/></g>
<g><path style="opacity:1" fill="#dcdbdb" d="M 331.5,163.5 C 329.712,166.117 327.378,168.284 324.5,170C 320.67,171.702 317.004,173.535 313.5,175.5C 312.559,173.95 311.893,172.284 311.5,170.5C 308.803,167.612 306.636,164.279 305,160.5C 303.871,158.859 302.371,157.859 300.5,157.5C 297.056,155.955 295.056,153.289 294.5,149.5C 293.598,147.659 292.264,146.326 290.5,145.5C 290.617,143.516 289.95,141.85 288.5,140.5C 287.069,138.062 285.069,136.396 282.5,135.5C 282.5,134.5 282.5,133.5 282.5,132.5C 287.075,135.938 287.742,134.604 284.5,128.5C 281.453,127.125 280.12,124.792 280.5,121.5C 281.552,121.351 282.552,121.517 283.5,122C 285.829,124.216 287.662,126.716 289,129.5C 300.179,142.349 311.013,155.516 321.5,169C 323.279,168.956 324.945,168.289 326.5,167C 313.712,150.543 300.545,134.377 287,118.5C 286.517,117.552 286.351,116.552 286.5,115.5C 290.281,115.296 292.614,116.963 293.5,120.5C 294.675,120.281 295.675,120.614 296.5,121.5C 298.644,127.316 302.31,131.983 307.5,135.5C 313.588,144.795 320.088,153.795 327,162.5C 328.356,163.38 329.856,163.714 331.5,163.5 Z"/></g>
<g><path style="opacity:0.878" fill="#626262" d="M 326.5,125.5 C 328.017,125.511 329.184,126.177 330,127.5C 332.111,129.789 333.611,132.455 334.5,135.5C 332.147,133.899 329.98,131.899 328,129.5C 327.209,128.255 326.709,126.922 326.5,125.5 Z"/></g>
<g><path style="opacity:0.624" fill="#727272" d="M 282.5,135.5 C 285.069,136.396 287.069,138.062 288.5,140.5C 289.95,141.85 290.617,143.516 290.5,145.5C 287.158,142.812 284.492,139.479 282.5,135.5 Z"/></g>
<g><path style="opacity:0.171" fill="#ddbac0" d="M 367.5,136.5 C 370.5,135.167 373.5,135.167 376.5,136.5C 373.604,137.775 370.604,137.775 367.5,136.5 Z"/></g>
<g><path style="opacity:0.192" fill="#636363" d="M 334.5,135.5 C 337.086,136.638 338.753,138.638 339.5,141.5C 336.914,140.362 335.247,138.362 334.5,135.5 Z"/></g>
<g><path style="opacity:0.522" fill="#ca7c86" d="M 367.5,136.5 C 370.604,137.775 373.604,137.775 376.5,136.5C 381.402,137.35 385.402,139.683 388.5,143.5C 385.86,143.046 383.527,141.879 381.5,140C 372.451,136.795 364.451,138.295 357.5,144.5C 356.833,144.5 356.167,144.5 355.5,144.5C 356.252,142.9 357.252,141.4 358.5,140C 361.562,138.795 364.562,137.628 367.5,136.5 Z"/></g>
<g><path style="opacity:0.502" fill="#787373" d="M 339.5,142.5 C 341.017,142.511 342.184,143.177 343,144.5C 345.292,148.129 347.792,151.462 350.5,154.5C 350.784,156.415 350.451,158.081 349.5,159.5C 349.245,156.984 348.411,154.65 347,152.5C 343.752,149.643 341.252,146.31 339.5,142.5 Z"/></g>
<g><path style="opacity:0.286" fill="#747474" d="M 290.5,145.5 C 292.264,146.326 293.598,147.659 294.5,149.5C 292.167,149.167 290.833,147.833 290.5,145.5 Z"/></g>
<g><path style="opacity:1" fill="#dedddd" d="M 311.5,108.5 C 312.167,108.5 312.833,108.5 313.5,108.5C 313.67,111.204 315.003,112.871 317.5,113.5C 317.833,114.167 318.167,114.833 318.5,115.5C 319.938,118.782 321.771,121.782 324,124.5C 324.671,125.252 325.504,125.586 326.5,125.5C 326.709,126.922 327.209,128.255 328,129.5C 329.98,131.899 332.147,133.899 334.5,135.5C 335.247,138.362 336.914,140.362 339.5,141.5C 339.5,141.833 339.5,142.167 339.5,142.5C 341.252,146.31 343.752,149.643 347,152.5C 348.411,154.65 349.245,156.984 349.5,159.5C 349.5,160.167 349.5,160.833 349.5,161.5C 344.167,161.5 338.833,161.5 333.5,161.5C 331.852,160.19 330.186,158.857 328.5,157.5C 326.229,153.388 323.729,149.388 321,145.5C 312.242,134.327 303.242,123.327 294,112.5C 293.517,111.552 293.351,110.552 293.5,109.5C 294.873,109.343 296.207,109.51 297.5,110C 310.083,125.567 322.583,141.067 335,156.5C 335.483,157.448 335.649,158.448 335.5,159.5C 337.288,159.785 338.955,159.452 340.5,158.5C 337.069,152.627 333.402,146.96 329.5,141.5C 321.655,134.161 314.988,125.828 309.5,116.5C 305.18,113.601 303.013,109.601 303,104.5C 306.667,106.833 309.667,109.833 312,113.5C 313.303,111.947 313.136,110.28 311.5,108.5 Z"/></g>
<g><path style="opacity:0.078" fill="#e7e7e7" d="M 417.5,150.5 C 415.167,150.5 412.833,150.5 410.5,150.5C 411.134,149.053 412.301,148.387 414,148.5C 415.699,148.387 416.866,149.053 417.5,150.5 Z"/></g>
<g><path style="opacity:0.647" fill="#cb737d" d="M 405.5,151.5 C 406.919,150.549 408.585,150.216 410.5,150.5C 412.833,150.5 415.167,150.5 417.5,150.5C 421.36,150.326 424.36,151.659 426.5,154.5C 423.903,154.357 421.569,153.523 419.5,152C 414.845,151.501 410.179,151.334 405.5,151.5 Z"/></g>
<g><path style="opacity:0.547" fill="#841521" d="M 355.5,144.5 C 356.167,144.5 356.833,144.5 357.5,144.5C 353.823,149.524 351.823,155.191 351.5,161.5C 350.833,161.5 350.167,161.5 349.5,161.5C 349.5,160.833 349.5,160.167 349.5,159.5C 350.451,158.081 350.784,156.415 350.5,154.5C 351.13,150.574 352.796,147.241 355.5,144.5 Z"/></g>
<g><path style="opacity:0.384" fill="#cc8f9c" d="M 426.5,154.5 C 428.773,154.957 430.106,156.29 430.5,158.5C 427.858,158.512 426.525,157.179 426.5,154.5 Z"/></g>
<g><path style="opacity:0.324" fill="#989898" d="M 300.5,157.5 C 302.371,157.859 303.871,158.859 305,160.5C 306.636,164.279 308.803,167.612 311.5,170.5C 309.284,169.797 307.451,168.464 306,166.5C 304.799,164.091 303.133,162.091 301,160.5C 300.517,159.552 300.351,158.552 300.5,157.5 Z"/></g>
<g><path style="opacity:1" fill="#b20311" d="M 333.5,161.5 C 338.833,161.5 344.167,161.5 349.5,161.5C 350.167,161.5 350.833,161.5 351.5,161.5C 352.942,162.82 353.608,164.486 353.5,166.5C 356.701,168.177 360.035,169.677 363.5,171C 363.167,171.333 362.833,171.667 362.5,172C 367.061,173.274 367.394,174.774 363.5,176.5C 359.548,185.528 361.215,193.361 368.5,200C 372.781,203.301 377.281,206.135 382,208.5C 382.64,211.368 381.473,213.035 378.5,213.5C 374.731,213.756 371.064,213.423 367.5,212.5C 366.5,212.5 365.5,212.5 364.5,212.5C 357.49,208.67 351.157,203.837 345.5,198C 344.833,197.333 344.167,197.333 343.5,198C 341.044,200.367 340.211,203.2 341,206.5C 346.306,210.305 351.473,214.305 356.5,218.5C 358.916,220.908 360.916,223.574 362.5,226.5C 367.246,232.666 370.913,239.332 373.5,246.5C 375.768,251.638 378.768,256.305 382.5,260.5C 383.325,261.386 384.325,261.719 385.5,261.5C 386.609,261.443 387.609,261.11 388.5,260.5C 389.158,261.398 389.824,262.398 390.5,263.5C 391.731,262.349 391.731,261.183 390.5,260C 391.483,259.409 392.15,259.743 392.5,261C 393.86,266.216 395.36,271.383 397,276.5C 397.5,288.829 397.667,301.162 397.5,313.5C 396.566,316.656 395.899,319.989 395.5,323.5C 394.379,325.741 393.213,328.075 392,330.5C 390.252,338.833 388.752,347.166 387.5,355.5C 386.566,356.568 386.232,357.901 386.5,359.5C 385.778,359.918 385.278,360.584 385,361.5C 384.177,370.01 384.343,378.344 385.5,386.5C 386.135,389.931 387.135,393.264 388.5,396.5C 388.547,399.568 389.047,402.568 390,405.5C 390.417,406.756 391.25,407.423 392.5,407.5C 394.43,411.125 396.43,414.792 398.5,418.5C 399.283,422.605 401.283,425.939 404.5,428.5C 405.167,428.5 405.833,428.5 406.5,428.5C 407.442,431.42 408.776,434.086 410.5,436.5C 415.734,436.168 417.901,433.501 417,428.5C 415.22,427.406 413.386,426.406 411.5,425.5C 409.587,422.884 407.421,420.551 405,418.5C 403.409,416.073 402.575,413.407 402.5,410.5C 400.678,410.169 399.011,409.502 397.5,408.5C 395.973,401.058 394.139,393.724 392,386.5C 391.5,379.508 391.334,372.508 391.5,365.5C 392.927,363.852 393.76,361.852 394,359.5C 394.501,355.49 395.001,351.49 395.5,347.5C 396.346,344.452 397.346,341.452 398.5,338.5C 400.695,333.917 402.361,328.917 403.5,323.5C 404.487,320.232 404.82,316.898 404.5,313.5C 404.803,306.336 405.136,299.169 405.5,292C 405.699,284.532 404.699,277.365 402.5,270.5C 402.554,265.944 404.888,263.444 409.5,263C 411.114,260.873 413.114,259.373 415.5,258.5C 419.146,256.518 422.146,253.851 424.5,250.5C 424.833,250.5 425.167,250.5 425.5,250.5C 427.527,250.338 429.527,250.505 431.5,251C 430.177,251.816 429.511,252.983 429.5,254.5C 426.582,260.063 423.749,265.729 421,271.5C 419.805,275.751 419.305,280.085 419.5,284.5C 422.271,284.579 424.937,284.079 427.5,283C 431.34,280.579 435.34,278.412 439.5,276.5C 444.506,272.822 449.173,268.822 453.5,264.5C 454.721,263.972 455.887,263.305 457,262.5C 458.772,259.067 460.605,255.734 462.5,252.5C 463.842,250.995 465.508,250.328 467.5,250.5C 466.891,247.122 468.224,245.122 471.5,244.5C 471.668,251.51 472.001,258.51 472.5,265.5C 468.066,270.472 465.733,276.472 465.5,283.5C 463.72,284.99 463.054,286.99 463.5,289.5C 461.952,289.821 461.285,290.821 461.5,292.5C 460.624,292.369 459.957,292.702 459.5,293.5C 458.477,297.077 456.977,300.411 455,303.5C 453.648,306.72 452.814,310.053 452.5,313.5C 451.25,313.577 450.417,314.244 450,315.5C 448.648,318.72 447.814,322.053 447.5,325.5C 447.5,325.833 447.5,326.167 447.5,326.5C 444.865,328.339 443.532,331.006 443.5,334.5C 441.023,336.416 440.023,339.083 440.5,342.5C 440.5,342.833 440.5,343.167 440.5,343.5C 438.689,345.385 437.522,347.719 437,350.5C 436.501,355.489 436.334,360.489 436.5,365.5C 436.5,366.5 436.5,367.5 436.5,368.5C 435.883,368.611 435.383,368.944 435,369.5C 434.498,384.193 433.665,398.859 432.5,413.5C 432.388,421.844 432.055,430.178 431.5,438.5C 397.5,438.5 363.5,438.5 329.5,438.5C 334.96,417.62 339.96,396.62 344.5,375.5C 345.051,372.193 345.384,368.86 345.5,365.5C 345.5,364.833 345.5,364.167 345.5,363.5C 346.966,362.653 347.8,361.32 348,359.5C 348.826,356.207 349.326,352.874 349.5,349.5C 351.439,343.956 352.439,338.123 352.5,332C 352.696,328.195 352.03,324.695 350.5,321.5C 348.346,317.864 346.179,314.198 344,310.5C 343.329,309.748 342.496,309.414 341.5,309.5C 341.33,306.796 339.997,305.129 337.5,304.5C 336.577,297.987 333.577,292.654 328.5,288.5C 328.33,285.796 326.997,284.129 324.5,283.5C 324.5,283.167 324.5,282.833 324.5,282.5C 318.479,270.458 312.479,258.458 306.5,246.5C 305.5,246.5 304.5,246.5 303.5,246.5C 303.5,246.167 303.5,245.833 303.5,245.5C 302.896,238.957 300.229,233.624 295.5,229.5C 295.657,228.127 295.49,226.793 295,225.5C 293.208,222.915 291.708,220.249 290.5,217.5C 290.5,217.167 290.5,216.833 290.5,216.5C 290.5,212.833 290.5,209.167 290.5,205.5C 291.496,205.586 292.329,205.252 293,204.5C 294.989,200.36 297.156,196.36 299.5,192.5C 302.292,191.608 303.625,189.608 303.5,186.5C 306.167,185.833 307.833,184.167 308.5,181.5C 310.833,181.167 312.167,179.833 312.5,177.5C 312.833,176.833 313.167,176.167 313.5,175.5C 317.004,173.535 320.67,171.702 324.5,170C 327.378,168.284 329.712,166.117 331.5,163.5C 332.5,163.167 333.167,162.5 333.5,161.5 Z M 391.5,396.5 C 390.883,396.389 390.383,396.056 390,395.5C 388.876,392.558 388.542,389.558 389,386.5C 390.608,389.621 391.441,392.954 391.5,396.5 Z M 392.5,399.5 C 394.584,402.053 395.917,405.053 396.5,408.5C 394.926,407.016 393.593,405.349 392.5,403.5C 392.5,402.167 392.5,400.833 392.5,399.5 Z M 397.5,411.5 C 399.822,412.802 401.155,414.802 401.5,417.5C 399.178,416.198 397.845,414.198 397.5,411.5 Z M 401.5,417.5 C 403.727,418.401 404.727,420.067 404.5,422.5C 403.5,421.833 402.5,421.167 401.5,420.5C 401.5,419.5 401.5,418.5 401.5,417.5 Z M 404.5,422.5 C 406.509,424.543 408.509,426.543 410.5,428.5C 409.167,428.5 407.833,428.5 406.5,428.5C 406.296,426.315 405.63,424.315 404.5,422.5 Z M 410.5,428.5 C 411.473,428.987 412.473,429.487 413.5,430C 411.843,430.725 410.843,430.225 410.5,428.5 Z"/></g>
<g><path style="opacity:0.173" fill="#d59ea5" d="M 430.5,158.5 C 435.378,164.707 435.712,171.04 431.5,177.5C 431.451,174.626 431.784,171.792 432.5,169C 431.591,165.534 430.924,162.034 430.5,158.5 Z"/></g>
<g><path style="opacity:0.725" fill="#cb727b" d="M 388.5,144.5 C 391.58,148.343 393.247,152.843 393.5,158C 392.713,160.099 392.38,162.266 392.5,164.5C 394.492,162.145 396.159,159.479 397.5,156.5C 398.577,155.295 399.91,154.628 401.5,154.5C 398.41,159.679 395.577,165.013 393,170.5C 391.494,172.174 389.661,173.174 387.5,173.5C 388.084,168.158 389.417,162.991 391.5,158C 390.685,153.42 389.685,148.92 388.5,144.5 Z M 392.5,164.5 C 392.617,166.484 391.95,168.15 390.5,169.5C 390.167,169.167 389.833,168.833 389.5,168.5C 390.521,167.099 391.521,165.765 392.5,164.5 Z"/></g>
<g><path style="opacity:0.106" fill="#e8d0d5" d="M 312.5,177.5 C 312.167,179.833 310.833,181.167 308.5,181.5C 309.5,179.833 310.833,178.5 312.5,177.5 Z"/></g>
<g><path style="opacity:0.22" fill="#cc7f88" d="M 431.5,178.5 C 429.654,181.793 428.154,185.127 427,188.5C 429.018,186.65 430.851,184.65 432.5,182.5C 433.85,181.05 435.516,180.383 437.5,180.5C 433.868,183.118 431.201,186.451 429.5,190.5C 427.833,190.5 426.167,190.5 424.5,190.5C 424.338,188.473 424.505,186.473 425,184.5C 426.595,181.85 428.762,179.85 431.5,178.5 Z"/></g>
<g><path style="opacity:0.173" fill="#dabdc4" d="M 449.5,180.5 C 445.833,180.5 442.167,180.5 438.5,180.5C 439.694,179.223 441.36,178.556 443.5,178.5C 445.167,178.667 446.833,178.833 448.5,179C 449.056,179.383 449.389,179.883 449.5,180.5 Z"/></g>
<g><path style="opacity:0.133" fill="#dfb9bc" d="M 308.5,181.5 C 307.833,184.167 306.167,185.833 303.5,186.5C 304.833,184.5 306.5,182.833 308.5,181.5 Z"/></g>
<g><path style="opacity:1" fill="#c90422" d="M 388.5,143.5 C 388.5,143.833 388.5,144.167 388.5,144.5C 389.685,148.92 390.685,153.42 391.5,158C 389.417,162.991 388.084,168.158 387.5,173.5C 389.661,173.174 391.494,172.174 393,170.5C 395.577,165.013 398.41,159.679 401.5,154.5C 403.973,154.912 405.306,153.912 405.5,151.5C 410.179,151.334 414.845,151.501 419.5,152C 421.569,153.523 423.903,154.357 426.5,154.5C 426.525,157.179 427.858,158.512 430.5,158.5C 430.924,162.034 431.591,165.534 432.5,169C 431.784,171.792 431.451,174.626 431.5,177.5C 431.5,177.833 431.5,178.167 431.5,178.5C 428.762,179.85 426.595,181.85 425,184.5C 424.505,186.473 424.338,188.473 424.5,190.5C 426.167,190.5 427.833,190.5 429.5,190.5C 431.201,186.451 433.868,183.118 437.5,180.5C 437.833,180.5 438.167,180.5 438.5,180.5C 442.167,180.5 445.833,180.5 449.5,180.5C 450.791,180.263 451.791,180.596 452.5,181.5C 454.57,184.606 456.903,187.606 459.5,190.5C 461.204,197.673 460.038,204.34 456,210.5C 455.505,212.473 455.338,214.473 455.5,216.5C 456.833,216.5 458.167,216.5 459.5,216.5C 459.5,215.5 459.5,214.5 459.5,213.5C 462.864,212.439 466.197,211.439 469.5,210.5C 469.833,210.5 470.167,210.5 470.5,210.5C 474.667,211.578 478.667,213.245 482.5,215.5C 483.463,219.796 483.629,224.129 483,228.5C 482.139,231.368 480.472,233.702 478,235.5C 477.392,237.154 476.892,238.821 476.5,240.5C 473.931,240.738 472.265,242.071 471.5,244.5C 468.224,245.122 466.891,247.122 467.5,250.5C 465.508,250.328 463.842,250.995 462.5,252.5C 460.605,255.734 458.772,259.067 457,262.5C 455.887,263.305 454.721,263.972 453.5,264.5C 454.552,258.743 452.885,254.076 448.5,250.5C 448.047,249.542 447.381,248.708 446.5,248C 441.778,247.223 437.111,247.39 432.5,248.5C 432.369,243.712 432.036,239.046 431.5,234.5C 429.888,229.889 426.888,226.556 422.5,224.5C 417.182,222.754 412.182,223.421 407.5,226.5C 406.817,226.137 406.15,225.804 405.5,225.5C 404.5,225.167 403.833,224.5 403.5,223.5C 402.791,222.596 401.791,222.263 400.5,222.5C 400.666,218.486 400.499,214.486 400,210.5C 399.722,209.584 399.222,208.918 398.5,208.5C 396.163,206.334 393.663,204.334 391,202.5C 383.544,191.873 374.377,183.206 363.5,176.5C 367.394,174.774 367.061,173.274 362.5,172C 362.833,171.667 363.167,171.333 363.5,171C 360.035,169.677 356.701,168.177 353.5,166.5C 353.608,164.486 352.942,162.82 351.5,161.5C 351.823,155.191 353.823,149.524 357.5,144.5C 364.451,138.295 372.451,136.795 381.5,140C 383.527,141.879 385.86,143.046 388.5,143.5 Z M 392.5,164.5 C 391.521,165.765 390.521,167.099 389.5,168.5C 389.833,168.833 390.167,169.167 390.5,169.5C 391.95,168.15 392.617,166.484 392.5,164.5 Z"/></g>
<g><path style="opacity:0.431" fill="#cf848f" d="M 405.5,151.5 C 405.306,153.912 403.973,154.912 401.5,154.5C 402.035,152.554 403.368,151.554 405.5,151.5 Z"/></g>
<g><path style="opacity:0.537" fill="#cf8f93" d="M 303.5,186.5 C 303.625,189.608 302.292,191.608 299.5,192.5C 299.845,189.802 301.178,187.802 303.5,186.5 Z"/></g>
<g><path style="opacity:0.245" fill="#6e686a" d="M 484.5,191.5 C 483.2,193.223 482.533,195.39 482.5,198C 482.504,200.361 482.837,202.527 483.5,204.5C 483.5,205.5 483.5,206.5 483.5,207.5C 482.778,207.082 482.278,206.416 482,205.5C 481.582,201.822 481.082,198.155 480.5,194.5C 480.35,190.95 481.683,189.95 484.5,191.5 Z"/></g>
<g><path style="opacity:0.267" fill="#cc9397" d="M 299.5,192.5 C 297.156,196.36 294.989,200.36 293,204.5C 292.329,205.252 291.496,205.586 290.5,205.5C 291.592,201.448 293.425,197.782 296,194.5C 297.113,193.695 298.279,193.028 299.5,192.5 Z"/></g>
<g><path style="opacity:0.996" fill="#f8f6f6" d="M 506.5,197.5 C 507.926,203.409 505.926,205.409 500.5,203.5C 500.5,202.833 500.5,202.167 500.5,201.5C 500.187,198.753 500.52,196.086 501.5,193.5C 503.186,194.857 504.852,196.19 506.5,197.5 Z"/></g>
<g><path style="opacity:0.486" fill="#7a4c51" d="M 259.5,210.5 C 259.5,209.5 259.5,208.5 259.5,207.5C 260.775,202.883 260.775,198.216 259.5,193.5C 257.814,194.857 256.148,196.19 254.5,197.5C 255.423,194.74 257.256,192.74 260,191.5C 260.915,192.328 261.581,193.328 262,194.5C 261.967,198.812 261.634,203.145 261,207.5C 260.768,208.737 260.268,209.737 259.5,210.5 Z"/></g>
<g><path style="opacity:0.999" fill="#e9e5e6" d="M 484.5,191.5 C 487.213,193.214 489.213,195.547 490.5,198.5C 491.265,203.906 488.931,205.906 483.5,204.5C 482.837,202.527 482.504,200.361 482.5,198C 482.533,195.39 483.2,193.223 484.5,191.5 Z"/></g>
<g><path style="opacity:0.867" fill="#acabab" d="M 506.5,197.5 C 504.852,196.19 503.186,194.857 501.5,193.5C 500.52,196.086 500.187,198.753 500.5,201.5C 499.833,201.5 499.167,201.5 498.5,201.5C 498.177,197.774 498.511,194.107 499.5,190.5C 502.877,191.877 505.211,194.21 506.5,197.5 Z"/></g>
<g><path style="opacity:0.675" fill="#774f53" d="M 240.5,207.5 C 240.826,203.116 240.492,198.783 239.5,194.5C 237.814,195.857 236.148,197.19 234.5,198.5C 235.685,194.432 238.185,192.766 242,193.5C 242.767,198.426 242.267,203.092 240.5,207.5 Z"/></g>
<g><path style="opacity:0.998" fill="#f5a1ac" d="M 240.5,207.5 C 237.712,210.075 235.045,210.075 232.5,207.5C 232.405,204.308 233.071,201.308 234.5,198.5C 236.148,197.19 237.814,195.857 239.5,194.5C 240.492,198.783 240.826,203.116 240.5,207.5 Z"/></g>
<g><path style="opacity:0.105" fill="#5d5d5d" d="M 470.5,200.5 C 468.744,201.552 468.077,203.219 468.5,205.5C 467.539,203.735 467.205,201.735 467.5,199.5C 468.791,199.263 469.791,199.596 470.5,200.5 Z"/></g>
<g><path style="opacity:0.997" fill="#f4f2f2" d="M 470.5,200.5 C 471.167,200.833 471.833,201.167 472.5,201.5C 474.289,204.292 475.623,207.292 476.5,210.5C 474.5,210.5 472.5,210.5 470.5,210.5C 470.167,210.5 469.833,210.5 469.5,210.5C 469.768,208.901 469.434,207.568 468.5,206.5C 468.5,206.167 468.5,205.833 468.5,205.5C 468.077,203.219 468.744,201.552 470.5,200.5 Z"/></g>
<g><path style="opacity:1" fill="#f9a5ae" d="M 259.5,207.5 C 252.918,209.716 250.751,207.382 253,200.5C 254.039,199.756 254.539,198.756 254.5,197.5C 256.148,196.19 257.814,194.857 259.5,193.5C 260.775,198.216 260.775,202.883 259.5,207.5 Z"/></g>
<g><path style="opacity:0.392" fill="#d08d96" d="M 452.5,181.5 C 453.552,181.351 454.552,181.517 455.5,182C 460.017,185.689 462.351,190.522 462.5,196.5C 462.172,202.653 460.172,208.153 456.5,213C 457.176,214.683 458.176,214.85 459.5,213.5C 459.5,214.5 459.5,215.5 459.5,216.5C 458.167,216.5 456.833,216.5 455.5,216.5C 455.338,214.473 455.505,212.473 456,210.5C 460.038,204.34 461.204,197.673 459.5,190.5C 456.903,187.606 454.57,184.606 452.5,181.5 Z"/></g>
<g><path style="opacity:1" fill="#96202f" d="M 234.5,198.5 C 233.071,201.308 232.405,204.308 232.5,207.5C 231.391,207.557 230.391,207.89 229.5,208.5C 230.132,204.569 231.799,201.235 234.5,198.5 Z"/></g>
<g><path style="opacity:1" fill="#f6aab4" d="M 364.5,212.5 C 359.314,211.011 356.647,213.011 356.5,218.5C 351.473,214.305 346.306,210.305 341,206.5C 340.211,203.2 341.044,200.367 343.5,198C 344.167,197.333 344.833,197.333 345.5,198C 351.157,203.837 357.49,208.67 364.5,212.5 Z"/></g>
<g><path style="opacity:0.588" fill="#7e565b" d="M 276.5,214.5 C 276.666,210.486 276.499,206.486 276,202.5C 274.871,204.141 273.371,205.141 271.5,205.5C 272.695,202.15 274.862,201.15 278,202.5C 278.652,206.756 278.152,210.756 276.5,214.5 Z"/></g>
<g><path style="opacity:1" fill="#fab4bf" d="M 363.5,176.5 C 374.377,183.206 383.544,191.873 391,202.5C 393.663,204.334 396.163,206.334 398.5,208.5C 400.425,214.438 399.759,219.938 396.5,225C 396.836,226.03 397.503,226.53 398.5,226.5C 391.848,229.495 385.848,233.495 380.5,238.5C 379.311,239.429 377.978,239.762 376.5,239.5C 375.801,241.995 374.801,244.328 373.5,246.5C 370.913,239.332 367.246,232.666 362.5,226.5C 363.75,226.577 364.583,227.244 365,228.5C 366.128,226.655 366.628,224.655 366.5,222.5C 368.269,220.612 369.602,218.279 370.5,215.5C 373.306,214.832 375.972,214.166 378.5,213.5C 381.473,213.035 382.64,211.368 382,208.5C 377.281,206.135 372.781,203.301 368.5,200C 361.215,193.361 359.548,185.528 363.5,176.5 Z"/></g>
<g><path style="opacity:1" fill="#f09ca7" d="M 276.5,214.5 C 276.5,214.833 276.5,215.167 276.5,215.5C 275.833,216.167 275.167,216.833 274.5,217.5C 269.094,218.265 267.094,215.931 268.5,210.5C 268.75,208.326 269.75,206.659 271.5,205.5C 273.371,205.141 274.871,204.141 276,202.5C 276.499,206.486 276.666,210.486 276.5,214.5 Z"/></g>
<g><path style="opacity:0.369" fill="#ccafb3" d="M 290.5,205.5 C 290.5,209.167 290.5,212.833 290.5,216.5C 289.223,215.306 288.556,213.64 288.5,211.5C 288.667,209.833 288.833,208.167 289,206.5C 289.383,205.944 289.883,205.611 290.5,205.5 Z"/></g>
<g><path style="opacity:0.961" fill="#9f6c72" d="M 483.5,207.5 C 484.404,208.209 484.737,209.209 484.5,210.5C 485.5,210.5 486.5,210.5 487.5,210.5C 487.833,215.167 488.167,219.833 488.5,224.5C 487.317,221.433 485.983,218.433 484.5,215.5C 484.167,212.833 483.833,210.167 483.5,207.5 Z"/></g>
<g><path style="opacity:0.545" fill="#8e5d62" d="M 511.5,208.5 C 514.21,211.6 515.543,215.267 515.5,219.5C 513.358,216.2 512.025,212.533 511.5,208.5 Z"/></g>
<g><path style="opacity:0.278" fill="#d39da4" d="M 468.5,206.5 C 469.434,207.568 469.768,208.901 469.5,210.5C 466.197,211.439 462.864,212.439 459.5,213.5C 459.414,212.504 459.748,211.671 460.5,211C 463.063,209.921 465.729,209.421 468.5,209.5C 468.5,208.5 468.5,207.5 468.5,206.5 Z"/></g>
<g><path style="opacity:0.251" fill="#c7959c" d="M 472.5,201.5 C 474.129,202.625 475.629,203.959 477,205.5C 478.227,209.211 480.06,212.545 482.5,215.5C 478.667,213.245 474.667,211.578 470.5,210.5C 472.5,210.5 474.5,210.5 476.5,210.5C 475.623,207.292 474.289,204.292 472.5,201.5 Z"/></g>
<g><path style="opacity:1" fill="#e7e2e2" d="M 364.5,212.5 C 365.5,212.5 366.5,212.5 367.5,212.5C 366.793,215.786 366.46,219.119 366.5,222.5C 366.628,224.655 366.128,226.655 365,228.5C 364.583,227.244 363.75,226.577 362.5,226.5C 360.916,223.574 358.916,220.908 356.5,218.5C 356.647,213.011 359.314,211.011 364.5,212.5 Z"/></g>
<g><path style="opacity:1" fill="#e2586e" d="M 398.5,208.5 C 399.222,208.918 399.722,209.584 400,210.5C 400.499,214.486 400.666,218.486 400.5,222.5C 401.791,222.263 402.791,222.596 403.5,223.5C 401.011,223.241 399.344,224.241 398.5,226.5C 397.503,226.53 396.836,226.03 396.5,225C 399.759,219.938 400.425,214.438 398.5,208.5 Z"/></g>
<g><path style="opacity:1" fill="#d74b61" d="M 367.5,212.5 C 371.064,213.423 374.731,213.756 378.5,213.5C 375.972,214.166 373.306,214.832 370.5,215.5C 369.602,218.279 368.269,220.612 366.5,222.5C 366.46,219.119 366.793,215.786 367.5,212.5 Z"/></g>
<g><path style="opacity:0.992" fill="#ba8188" d="M 498.5,201.5 C 499.167,201.5 499.833,201.5 500.5,201.5C 500.5,202.167 500.5,202.833 500.5,203.5C 502.033,208.261 503.866,212.928 506,217.5C 506.445,223.18 506.945,228.846 507.5,234.5C 507.167,234.5 506.833,234.5 506.5,234.5C 506.167,231.833 505.833,229.167 505.5,226.5C 505.41,222.786 504.41,219.452 502.5,216.5C 500.702,211.642 499.368,206.642 498.5,201.5 Z"/></g>
<g><path style="opacity:0.867" fill="#900217" d="M 229.5,209.5 C 228.649,216.883 226.316,223.55 222.5,229.5C 223.746,222.364 226.08,215.698 229.5,209.5 Z"/></g>
<g><path style="opacity:0.314" fill="#7d0719" d="M 276.5,215.5 C 276.416,219.837 275.416,223.837 273.5,227.5C 273.46,224.119 273.793,220.786 274.5,217.5C 275.167,216.833 275.833,216.167 276.5,215.5 Z"/></g>
<g><path style="opacity:1" fill="#f5a6b0" d="M 506.5,197.5 C 508.957,200.751 510.624,204.418 511.5,208.5C 512.025,212.533 513.358,216.2 515.5,219.5C 517.951,222.74 519.618,226.407 520.5,230.5C 520.38,231.586 519.713,232.253 518.5,232.5C 514.829,233.631 511.163,234.631 507.5,235.5C 507.5,235.167 507.5,234.833 507.5,234.5C 506.945,228.846 506.445,223.18 506,217.5C 503.866,212.928 502.033,208.261 500.5,203.5C 505.926,205.409 507.926,203.409 506.5,197.5 Z"/></g>
<g><path style="opacity:1" fill="#ca0122" d="M 254.5,197.5 C 254.539,198.756 254.039,199.756 253,200.5C 250.751,207.382 252.918,209.716 259.5,207.5C 259.5,208.5 259.5,209.5 259.5,210.5C 257.906,221.873 255.239,232.873 251.5,243.5C 250.849,244.091 250.182,244.757 249.5,245.5C 248.508,249.783 248.174,254.116 248.5,258.5C 248.5,258.833 248.5,259.167 248.5,259.5C 249.248,261.735 250.081,261.402 251,258.5C 252.684,254.284 253.851,249.951 254.5,245.5C 258.019,233.257 262.686,221.59 268.5,210.5C 267.094,215.931 269.094,218.265 274.5,217.5C 273.793,220.786 273.46,224.119 273.5,227.5C 270.865,236.705 268.865,246.038 267.5,255.5C 266.662,255.842 266.328,256.508 266.5,257.5C 265.145,260.797 265.645,261.13 268,258.5C 270.721,254.392 272.887,250.059 274.5,245.5C 275.496,245.414 276.329,245.748 277,246.5C 277.697,243.308 279.53,241.308 282.5,240.5C 282.64,242.124 281.973,243.29 280.5,244C 281.227,245.399 281.727,246.899 282,248.5C 282.219,247.062 282.719,245.729 283.5,244.5C 284.631,246.074 284.798,247.741 284,249.5C 282.63,252.05 281.463,254.717 280.5,257.5C 279.675,258.386 278.675,258.719 277.5,258.5C 277.632,261.57 277.299,264.57 276.5,267.5C 276.08,271.007 275.08,274.341 273.5,277.5C 270.796,276.286 268.129,276.286 265.5,277.5C 264.673,282.651 264.173,287.984 264,293.5C 261.599,298.3 259.766,303.3 258.5,308.5C 256.567,315.3 254.233,321.967 251.5,328.5C 249.299,325.979 246.966,323.479 244.5,321C 240.747,319.011 236.747,318.178 232.5,318.5C 232.351,319.552 232.517,320.552 233,321.5C 240.436,328.707 244.936,337.374 246.5,347.5C 245.523,350.287 245.19,353.287 245.5,356.5C 245.902,367.645 247.236,378.645 249.5,389.5C 250.182,390.243 250.849,390.909 251.5,391.5C 255.294,407.012 258.294,422.678 260.5,438.5C 240.5,438.5 220.5,438.5 200.5,438.5C 200.439,406.91 198.773,375.41 195.5,344C 195.407,340.723 194.407,337.89 192.5,335.5C 192.281,327.63 190.947,319.963 188.5,312.5C 188.043,311.702 187.376,311.369 186.5,311.5C 184.171,307.845 182.837,303.845 182.5,299.5C 181.84,288.18 181.34,276.847 181,265.5C 180.764,263.881 179.931,262.881 178.5,262.5C 178.5,261.5 178.5,260.5 178.5,259.5C 180.167,258.5 181.5,257.167 182.5,255.5C 183.224,253.782 183.891,251.948 184.5,250C 184.043,249.586 183.709,249.086 183.5,248.5C 184.5,247.167 185.5,247.167 186.5,248.5C 187.803,250.968 189.303,253.301 191,255.5C 192.322,260.032 193.822,264.365 195.5,268.5C 196.301,270.042 196.634,271.708 196.5,273.5C 196.689,278.963 197.355,284.296 198.5,289.5C 199.822,289.67 200.989,289.337 202,288.5C 205.194,279.185 206.194,279.518 205,289.5C 205.21,286.766 206.044,284.266 207.5,282C 206.196,281.196 205.529,280.029 205.5,278.5C 207.15,273.897 208.483,269.231 209.5,264.5C 211.458,258.917 213.125,253.251 214.5,247.5C 215.577,246.982 216.744,246.648 218,246.5C 222.498,247.675 226.998,248.675 231.5,249.5C 231.5,250.167 231.5,250.833 231.5,251.5C 231.556,254.517 231.89,254.85 232.5,252.5C 233.117,252.389 233.617,252.056 234,251.5C 234.44,249.134 234.94,246.801 235.5,244.5C 240.561,230.152 245.728,215.819 251,201.5C 251.66,199.676 252.827,198.343 254.5,197.5 Z"/></g>
<g><path style="opacity:0.302" fill="#6b464b" d="M 502.5,216.5 C 504.41,219.452 505.41,222.786 505.5,226.5C 503.899,223.45 502.899,220.116 502.5,216.5 Z"/></g>
<g><path style="opacity:0.337" fill="#ab7f81" d="M 290.5,217.5 C 291.708,220.249 293.208,222.915 295,225.5C 295.49,226.793 295.657,228.127 295.5,229.5C 294.778,229.082 294.278,228.416 294,227.5C 293.155,229.611 292.322,231.611 291.5,233.5C 292.055,229.988 291.388,226.988 289.5,224.5C 290.141,223.518 290.807,222.518 291.5,221.5C 290.754,220.264 290.421,218.93 290.5,217.5 Z"/></g>
<g><path style="opacity:0.843" fill="#96666d" d="M 498.5,218.5 C 500.607,221.057 501.941,224.057 502.5,227.5C 501.542,227.047 500.708,226.381 500,225.5C 499.56,223.134 499.06,220.801 498.5,218.5 Z"/></g>
<g><path style="opacity:0.42" fill="#674d50" d="M 93.5,220.5 C 92.325,220.281 91.325,220.614 90.5,221.5C 88.3553,225.6 87.0219,229.933 86.5,234.5C 85.5318,236.607 85.1984,238.941 85.5,241.5C 85.1667,241.5 84.8333,241.5 84.5,241.5C 84.5719,234.21 86.0719,227.21 89,220.5C 90.6501,217.894 92.1501,217.894 93.5,220.5 Z"/></g>
<g><path style="opacity:1" fill="#eca1ab" d="M 93.5,220.5 C 95.7338,224.877 96.7338,229.543 96.5,234.5C 95.1882,235.145 94.1882,236.145 93.5,237.5C 91.604,238.466 89.604,238.799 87.5,238.5C 87.7678,236.901 87.4345,235.568 86.5,234.5C 87.0219,229.933 88.3553,225.6 90.5,221.5C 91.325,220.614 92.325,220.281 93.5,220.5 Z"/></g>
<g><path style="opacity:0.992" fill="#f1a2ac" d="M 289.5,224.5 C 291.388,226.988 292.055,229.988 291.5,233.5C 291.5,233.833 291.5,234.167 291.5,234.5C 290.833,235.167 290.167,235.833 289.5,236.5C 285.023,238.605 283.19,237.272 284,232.5C 285.372,231.09 286.205,229.423 286.5,227.5C 286.5,225.5 287.5,224.5 289.5,224.5 Z"/></g>
<g><path style="opacity:0.114" fill="#74484e" d="M 488.5,224.5 C 489.725,225.152 490.392,226.319 490.5,228C 490.917,230.498 491.251,232.998 491.5,235.5C 489.882,232.112 488.882,228.446 488.5,224.5 Z"/></g>
<g><path style="opacity:1" fill="#fbb4c0" d="M 422.5,224.5 C 426.888,226.556 429.888,229.889 431.5,234.5C 431.663,236.857 431.497,239.19 431,241.5C 428.642,244.222 426.809,247.222 425.5,250.5C 425.167,250.5 424.833,250.5 424.5,250.5C 420.88,252.453 417.88,255.119 415.5,258.5C 413.114,259.373 411.114,260.873 409.5,263C 404.888,263.444 402.554,265.944 402.5,270.5C 401.566,269.432 401.232,268.099 401.5,266.5C 400.178,266.67 399.011,266.337 398,265.5C 397.505,267.473 397.338,269.473 397.5,271.5C 395.923,267.747 394.923,263.747 394.5,259.5C 395.79,260.058 396.623,261.058 397,262.5C 397.891,254.819 398.891,247.152 400,239.5C 400.322,236.334 401.489,233.667 403.5,231.5C 402.04,234.704 401.54,238.038 402,241.5C 404.167,236.827 406.334,232.161 408.5,227.5C 412.796,225.042 417.463,224.042 422.5,224.5 Z"/></g>
<g><path style="opacity:1" fill="#db576a" d="M 422.5,224.5 C 417.463,224.042 412.796,225.042 408.5,227.5C 406.334,232.161 404.167,236.827 402,241.5C 401.54,238.038 402.04,234.704 403.5,231.5C 404.72,229.718 405.386,227.718 405.5,225.5C 406.15,225.804 406.817,226.137 407.5,226.5C 412.182,223.421 417.182,222.754 422.5,224.5 Z"/></g>
<g><path style="opacity:1" fill="#c10623" d="M 232.5,207.5 C 235.045,210.075 237.712,210.075 240.5,207.5C 238.941,220.294 236.608,232.961 233.5,245.5C 227.793,244.798 222.793,242.798 218.5,239.5C 219.263,235.863 220.597,232.53 222.5,229.5C 226.316,223.55 228.649,216.883 229.5,209.5C 229.5,209.167 229.5,208.833 229.5,208.5C 230.391,207.89 231.391,207.557 232.5,207.5 Z"/></g>
<g><path style="opacity:0.855" fill="#a97a81" d="M 561.5,230.5 C 561.631,229.761 561.464,229.094 561,228.5C 559.67,229.582 558.17,230.249 556.5,230.5C 553.5,231.833 550.5,233.167 547.5,234.5C 551.289,229.774 556.289,227.441 562.5,227.5C 562.737,228.791 562.404,229.791 561.5,230.5 Z"/></g>
<g><path style="opacity:1" fill="#e396a0" d="M 482.5,215.5 C 483.167,215.5 483.833,215.5 484.5,215.5C 485.092,223.925 487.092,231.925 490.5,239.5C 490.5,240.167 490.5,240.833 490.5,241.5C 487.333,241.4 484.333,242.067 481.5,243.5C 480.571,244.689 480.238,246.022 480.5,247.5C 479.662,247.158 479.328,246.492 479.5,245.5C 479.25,243.326 478.25,241.659 476.5,240.5C 476.892,238.821 477.392,237.154 478,235.5C 480.472,233.702 482.139,231.368 483,228.5C 483.629,224.129 483.463,219.796 482.5,215.5 Z"/></g>
<g><path style="opacity:1" fill="#fca7b0" d="M 490.5,198.5 C 494.239,204.658 496.906,211.325 498.5,218.5C 499.06,220.801 499.56,223.134 500,225.5C 500.708,226.381 501.542,227.047 502.5,227.5C 503.674,228.514 504.34,229.847 504.5,231.5C 505.075,235.326 506.241,238.992 508,242.5C 508.49,241.207 508.657,239.873 508.5,238.5C 513.415,237.117 518.415,236.117 523.5,235.5C 524.038,237.117 524.371,238.784 524.5,240.5C 525.61,244.406 526.443,248.406 527,252.5C 529.788,256.429 532.288,260.429 534.5,264.5C 534.202,268.601 535.868,271.267 539.5,272.5C 539.904,262.553 541.737,252.886 545,243.5C 546,243.167 547,242.833 548,242.5C 548.202,244.256 548.702,245.922 549.5,247.5C 550.504,244.175 551.838,243.841 553.5,246.5C 552.629,255.479 552.629,264.479 553.5,273.5C 553.806,276.385 553.473,279.052 552.5,281.5C 550.792,285.762 548.959,290.096 547,294.5C 545.985,298.44 545.485,302.44 545.5,306.5C 542.763,327.724 541.763,349.058 542.5,370.5C 542.5,393.167 542.5,415.833 542.5,438.5C 524.167,438.5 505.833,438.5 487.5,438.5C 488.01,435.017 488.677,431.684 489.5,428.5C 491.915,416.427 493.249,404.094 493.5,391.5C 494.222,391.082 494.722,390.416 495,389.5C 495.711,382.844 496.211,376.178 496.5,369.5C 497.222,369.082 497.722,368.416 498,367.5C 498.499,362.511 498.666,357.511 498.5,352.5C 498.5,352.167 498.5,351.833 498.5,351.5C 499.552,347.348 500.386,343.015 501,338.5C 501.38,329.88 501.547,321.38 501.5,313C 499.223,311.387 497.723,309.22 497,306.5C 496.667,306.833 496.333,307.167 496,307.5C 494.48,301.793 491.98,296.793 488.5,292.5C 487.326,291.486 486.66,290.153 486.5,288.5C 484.915,283.428 482.915,278.428 480.5,273.5C 480.043,272.702 479.376,272.369 478.5,272.5C 478.5,272.167 478.5,271.833 478.5,271.5C 478.087,269.11 477.421,266.777 476.5,264.5C 475.313,263.347 474.313,263.347 473.5,264.5C 473.5,265.167 473.167,265.5 472.5,265.5C 472.001,258.51 471.668,251.51 471.5,244.5C 472.265,242.071 473.931,240.738 476.5,240.5C 476.5,241.167 476.5,241.833 476.5,242.5C 477.38,246.079 478.88,249.413 481,252.5C 481.49,251.207 481.657,249.873 481.5,248.5C 485.49,248.501 489.157,247.501 492.5,245.5C 493.558,246.6 494.392,247.934 495,249.5C 495.167,249 495.333,248.5 495.5,248C 494.743,243.725 493.41,239.892 491.5,236.5C 491.5,236.167 491.5,235.833 491.5,235.5C 491.251,232.998 490.917,230.498 490.5,228C 490.392,226.319 489.725,225.152 488.5,224.5C 488.167,219.833 487.833,215.167 487.5,210.5C 486.5,210.5 485.5,210.5 484.5,210.5C 484.737,209.209 484.404,208.209 483.5,207.5C 483.5,206.5 483.5,205.5 483.5,204.5C 488.931,205.906 491.265,203.906 490.5,198.5 Z M 476.5,240.5 C 478.25,241.659 479.25,243.326 479.5,245.5C 478.272,244.694 477.272,243.694 476.5,242.5C 476.5,241.833 476.5,241.167 476.5,240.5 Z"/></g>
<g><path style="opacity:0.998" fill="#e9e4e5" d="M 561.5,230.5 C 561.37,234.525 560.37,238.191 558.5,241.5C 556.976,242.174 555.642,243.174 554.5,244.5C 552.495,243.663 551.495,242.163 551.5,240C 552.781,236.603 554.448,233.436 556.5,230.5C 558.17,230.249 559.67,229.582 561,228.5C 561.464,229.094 561.631,229.761 561.5,230.5 Z"/></g>
<g><path style="opacity:1" fill="#f3f0f0" d="M 520.5,230.5 C 523.084,231.048 524.084,232.715 523.5,235.5C 518.415,236.117 513.415,237.117 508.5,238.5C 507.596,237.791 507.263,236.791 507.5,235.5C 511.163,234.631 514.829,233.631 518.5,232.5C 519.713,232.253 520.38,231.586 520.5,230.5 Z"/></g>
<g><path style="opacity:0.592" fill="#ce797c" d="M 295.5,229.5 C 300.229,233.624 302.896,238.957 303.5,245.5C 302.542,245.047 301.708,244.381 301,243.5C 299.321,238.695 297.487,234.028 295.5,229.5 Z"/></g>
<g><path style="opacity:1" fill="#efeaea" d="M 403.5,223.5 C 403.833,224.5 404.5,225.167 405.5,225.5C 405.386,227.718 404.72,229.718 403.5,231.5C 401.489,233.667 400.322,236.334 400,239.5C 398.891,247.152 397.891,254.819 397,262.5C 396.623,261.058 395.79,260.058 394.5,259.5C 394.5,258.167 394.5,256.833 394.5,255.5C 390.348,255.744 387.348,257.744 385.5,261.5C 384.325,261.719 383.325,261.386 382.5,260.5C 378.768,256.305 375.768,251.638 373.5,246.5C 374.801,244.328 375.801,241.995 376.5,239.5C 377.978,239.762 379.311,239.429 380.5,238.5C 385.848,233.495 391.848,229.495 398.5,226.5C 399.344,224.241 401.011,223.241 403.5,223.5 Z"/></g>
<g><path style="opacity:1" fill="#b61326" d="M 286.5,227.5 C 286.205,229.423 285.372,231.09 284,232.5C 283.19,237.272 285.023,238.605 289.5,236.5C 288.677,239.461 288.01,242.461 287.5,245.5C 284.837,253.493 281.17,260.826 276.5,267.5C 277.299,264.57 277.632,261.57 277.5,258.5C 278.675,258.719 279.675,258.386 280.5,257.5C 281.463,254.717 282.63,252.05 284,249.5C 284.798,247.741 284.631,246.074 283.5,244.5C 282.719,245.729 282.219,247.062 282,248.5C 281.727,246.899 281.227,245.399 280.5,244C 281.973,243.29 282.64,242.124 282.5,240.5C 279.53,241.308 277.697,243.308 277,246.5C 276.329,245.748 275.496,245.414 274.5,245.5C 274.5,245.167 274.5,244.833 274.5,244.5C 276.733,239.701 279.233,235.035 282,230.5C 283.271,229.117 284.771,228.117 286.5,227.5 Z"/></g>
<g><path style="opacity:1" fill="#fcfcfc" d="M 86.5,234.5 C 87.4345,235.568 87.7678,236.901 87.5,238.5C 89.604,238.799 91.604,238.466 93.5,237.5C 94.1882,236.145 95.1882,235.145 96.5,234.5C 96.869,249.209 97.5356,263.876 98.5,278.5C 97.9781,279.607 97.6448,280.774 97.5,282C 98.3666,284.896 99.3666,287.729 100.5,290.5C 101.192,294.884 103.192,298.55 106.5,301.5C 107.344,305.099 107.677,308.766 107.5,312.5C 102.883,315.772 99.8827,320.106 98.5,325.5C 95.5542,331.071 91.8875,336.071 87.5,340.5C 85.8267,341.343 84.66,342.676 84,344.5C 83.5001,355.828 83.3335,367.162 83.5,378.5C 70.1667,378.5 56.8333,378.5 43.5,378.5C 43.5,377.833 43.5,377.167 43.5,376.5C 45.2983,367.742 46.2983,358.742 46.5,349.5C 45.7335,341.831 44.9001,334.165 44,326.5C 38.9037,312.3 37.4037,297.633 39.5,282.5C 41.0248,280.784 42.0248,278.784 42.5,276.5C 45.4807,275.174 48.4807,275.174 51.5,276.5C 54.2548,273.732 57.2548,271.399 60.5,269.5C 61.5,269.5 62.5,269.5 63.5,269.5C 64.5864,272.705 66.0864,273.038 68,270.5C 68.414,270.957 68.914,271.291 69.5,271.5C 69.3418,269.989 69.6751,268.322 70.5,266.5C 73.5241,264.224 76.8574,263.891 80.5,265.5C 80.3284,266.492 80.6618,267.158 81.5,267.5C 81.5,269.5 81.5,271.5 81.5,273.5C 82.5,273.5 83.5,273.5 84.5,273.5C 85.3755,262.86 85.7088,252.194 85.5,241.5C 85.1984,238.941 85.5318,236.607 86.5,234.5 Z"/></g>
<g><path style="opacity:0.545" fill="#780e1b" d="M 291.5,234.5 C 290.935,238.537 289.601,242.203 287.5,245.5C 288.01,242.461 288.677,239.461 289.5,236.5C 290.167,235.833 290.833,235.167 291.5,234.5 Z"/></g>
<g><path style="opacity:0.325" fill="#694852" d="M 504.5,231.5 C 505.167,232.5 505.833,233.5 506.5,234.5C 506.5,235.167 506.833,235.5 507.5,235.5C 507.263,236.791 507.596,237.791 508.5,238.5C 508.657,239.873 508.49,241.207 508,242.5C 506.241,238.992 505.075,235.326 504.5,231.5 Z"/></g>
<g><path style="opacity:0.997" fill="#d3939b" d="M 556.5,230.5 C 554.448,233.436 552.781,236.603 551.5,240C 551.495,242.163 552.495,243.663 554.5,244.5C 555.642,243.174 556.976,242.174 558.5,241.5C 558.262,243.404 557.262,244.738 555.5,245.5C 554.833,245.833 554.167,246.167 553.5,246.5C 551.838,243.841 550.504,244.175 549.5,247.5C 548.702,245.922 548.202,244.256 548,242.5C 547,242.833 546,243.167 545,243.5C 541.737,252.886 539.904,262.553 539.5,272.5C 535.868,271.267 534.202,268.601 534.5,264.5C 535.793,265.842 536.626,267.509 537,269.5C 538.823,259.049 541.157,248.716 544,238.5C 544.66,236.676 545.827,235.343 547.5,234.5C 550.5,233.167 553.5,231.833 556.5,230.5 Z"/></g>
<g><path style="opacity:0.043" fill="#765659" d="M 491.5,236.5 C 493.41,239.892 494.743,243.725 495.5,248C 495.333,248.5 495.167,249 495,249.5C 494.392,247.934 493.558,246.6 492.5,245.5C 492.843,243.517 492.176,242.183 490.5,241.5C 490.5,240.833 490.5,240.167 490.5,239.5C 491.404,238.791 491.737,237.791 491.5,236.5 Z"/></g>
<g><path style="opacity:1" fill="#f8d5d9" d="M 490.5,241.5 C 492.176,242.183 492.843,243.517 492.5,245.5C 489.157,247.501 485.49,248.501 481.5,248.5C 480.833,248.5 480.5,248.167 480.5,247.5C 480.238,246.022 480.571,244.689 481.5,243.5C 484.333,242.067 487.333,241.4 490.5,241.5 Z"/></g>
<g><path style="opacity:1" fill="#e48d98" d="M 218.5,239.5 C 222.793,242.798 227.793,244.798 233.5,245.5C 233.843,247.483 233.176,248.817 231.5,249.5C 226.998,248.675 222.498,247.675 218,246.5C 216.744,246.648 215.577,246.982 214.5,247.5C 213.774,243.74 215.107,241.073 218.5,239.5 Z"/></g>
<g><path style="opacity:0.643" fill="#8a6264" d="M 476.5,242.5 C 477.272,243.694 478.272,244.694 479.5,245.5C 479.328,246.492 479.662,247.158 480.5,247.5C 480.5,248.167 480.833,248.5 481.5,248.5C 481.657,249.873 481.49,251.207 481,252.5C 478.88,249.413 477.38,246.079 476.5,242.5 Z"/></g>
<g><path style="opacity:1" fill="#b00d23" d="M 173.5,240.5 C 174.833,240.5 176.167,240.5 177.5,240.5C 186.391,243.212 191.891,249.212 194,258.5C 195.043,261.757 195.543,265.09 195.5,268.5C 193.822,264.365 192.322,260.032 191,255.5C 189.303,253.301 187.803,250.968 186.5,248.5C 185.5,247.167 184.5,247.167 183.5,248.5C 183.709,249.086 184.043,249.586 184.5,250C 183.891,251.948 183.224,253.782 182.5,255.5C 182.628,253.345 182.128,251.345 181,249.5C 178.665,246.335 176.165,243.335 173.5,240.5 Z"/></g>
<g><path style="opacity:1" fill="#d63f4c" d="M 431.5,234.5 C 432.036,239.046 432.369,243.712 432.5,248.5C 437.111,247.39 441.778,247.223 446.5,248C 447.381,248.708 448.047,249.542 448.5,250.5C 444.715,248.841 440.715,248.341 436.5,249C 433.728,250.344 431.395,252.177 429.5,254.5C 429.511,252.983 430.177,251.816 431.5,251C 429.527,250.505 427.527,250.338 425.5,250.5C 426.809,247.222 428.642,244.222 431,241.5C 431.497,239.19 431.663,236.857 431.5,234.5 Z"/></g>
<g><path style="opacity:0.361" fill="#8e6166" d="M 177.5,240.5 C 176.167,240.5 174.833,240.5 173.5,240.5C 172.176,239.15 171.176,239.317 170.5,241C 172.272,245.485 173.939,249.985 175.5,254.5C 170.989,249.793 168.989,244.127 169.5,237.5C 172.21,238.506 174.876,239.506 177.5,240.5 Z"/></g>
<g><path style="opacity:1" fill="#f29fa9" d="M 173.5,240.5 C 176.165,243.335 178.665,246.335 181,249.5C 182.128,251.345 182.628,253.345 182.5,255.5C 181.5,257.167 180.167,258.5 178.5,259.5C 176.75,258.341 175.75,256.674 175.5,254.5C 173.939,249.985 172.272,245.485 170.5,241C 171.176,239.317 172.176,239.15 173.5,240.5 Z"/></g>
<g><path style="opacity:0.239" fill="#6c161c" d="M 235.5,244.5 C 234.94,246.801 234.44,249.134 234,251.5C 233.617,252.056 233.117,252.389 232.5,252.5C 232.5,251.833 232.167,251.5 231.5,251.5C 231.5,250.833 231.5,250.167 231.5,249.5C 233.176,248.817 233.843,247.483 233.5,245.5C 234.167,245.167 234.833,244.833 235.5,244.5 Z"/></g>
<g><path style="opacity:1" fill="#de5869" d="M 424.5,250.5 C 422.146,253.851 419.146,256.518 415.5,258.5C 417.88,255.119 420.88,252.453 424.5,250.5 Z"/></g>
<g><path style="opacity:0.075" fill="#860315" d="M 251.5,243.5 C 250.242,247.762 249.742,252.096 250,256.5C 251.038,252.532 252.538,248.865 254.5,245.5C 253.851,249.951 252.684,254.284 251,258.5C 250.081,261.402 249.248,261.735 248.5,259.5C 249.833,259.167 249.833,258.833 248.5,258.5C 248.174,254.116 248.508,249.783 249.5,245.5C 250.182,244.757 250.849,244.091 251.5,243.5 Z"/></g>
<g><path style="opacity:0.169" fill="#730515" d="M 274.5,244.5 C 274.5,244.833 274.5,245.167 274.5,245.5C 272.887,250.059 270.721,254.392 268,258.5C 265.645,261.13 265.145,260.797 266.5,257.5C 267.338,257.158 267.672,256.492 267.5,255.5C 269.584,251.664 271.917,247.997 274.5,244.5 Z"/></g>
<g><path style="opacity:1" fill="#fbb4c0" d="M 448.5,250.5 C 452.885,254.076 454.552,258.743 453.5,264.5C 449.173,268.822 444.506,272.822 439.5,276.5C 435.34,278.412 431.34,280.579 427.5,283C 424.937,284.079 422.271,284.579 419.5,284.5C 419.305,280.085 419.805,275.751 421,271.5C 423.749,265.729 426.582,260.063 429.5,254.5C 431.395,252.177 433.728,250.344 436.5,249C 440.715,248.341 444.715,248.841 448.5,250.5 Z"/></g>
<g><path style="opacity:0.557" fill="#a57076" d="M 524.5,240.5 C 528.402,248.192 531.736,256.192 534.5,264.5C 532.288,260.429 529.788,256.429 527,252.5C 526.443,248.406 525.61,244.406 524.5,240.5 Z"/></g>
<g><path style="opacity:1" fill="#d27277" d="M 394.5,259.5 C 391.967,256.77 389.967,257.103 388.5,260.5C 387.609,261.11 386.609,261.443 385.5,261.5C 387.348,257.744 390.348,255.744 394.5,255.5C 394.5,256.833 394.5,258.167 394.5,259.5 Z"/></g>
<g><path style="opacity:0.371" fill="#754c53" d="M 555.5,245.5 C 554.881,249.662 554.215,253.828 553.5,258C 554.729,263.321 554.729,268.488 553.5,273.5C 552.629,264.479 552.629,255.479 553.5,246.5C 554.167,246.167 554.833,245.833 555.5,245.5 Z"/></g>
<g><path style="opacity:1" fill="#d7cecf" d="M 646.5,267.5 C 646.649,268.552 646.483,269.552 646,270.5C 644.561,268.552 642.728,267.219 640.5,266.5C 638.497,267.858 636.497,269.191 634.5,270.5C 634.243,262.258 637.91,259.758 645.5,263C 646.38,264.356 646.714,265.856 646.5,267.5 Z"/></g>
<g><path style="opacity:0.027" fill="#353535" d="M 83.5,263.5 C 83.6602,265.199 83.4935,266.866 83,268.5C 82.6174,267.944 82.1174,267.611 81.5,267.5C 80.6618,267.158 80.3284,266.492 80.5,265.5C 81.1174,265.611 81.6174,265.944 82,266.5C 82.2321,265.263 82.7321,264.263 83.5,263.5 Z"/></g>
<g><path style="opacity:0.69" fill="#cd7278" d="M 303.5,246.5 C 304.5,246.5 305.5,246.5 306.5,246.5C 312.479,258.458 318.479,270.458 324.5,282.5C 316.521,271.227 309.521,259.227 303.5,246.5 Z"/></g>
<g><path style="opacity:0.494" fill="#875f62" d="M 473.5,264.5 C 474.313,263.347 475.313,263.347 476.5,264.5C 477.421,266.777 478.087,269.11 478.5,271.5C 476.588,269.343 474.921,267.009 473.5,264.5 Z"/></g>
<g><path style="opacity:0.914" fill="#992123" d="M 285.5,270.5 C 283.379,270.325 281.379,270.659 279.5,271.5C 281.054,265.518 283.054,265.184 285.5,270.5 Z"/></g>
<g><path style="opacity:0.796" fill="#a7a7a7" d="M 70.5,266.5 C 69.6751,268.322 69.3418,269.989 69.5,271.5C 68.914,271.291 68.414,270.957 68,270.5C 66.0864,273.038 64.5864,272.705 63.5,269.5C 64.4959,269.414 65.3292,269.748 66,270.5C 66.8763,268.365 68.3763,267.031 70.5,266.5 Z"/></g>
<g><path style="opacity:0.769" fill="#a9111a" d="M 298.5,274.5 C 296.901,274.768 295.568,274.434 294.5,273.5C 294.415,272.005 295.081,271.005 296.5,270.5C 298.111,271.32 298.778,272.654 298.5,274.5 Z"/></g>
<g><path style="opacity:0.882" fill="#b1b1b1" d="M 84.5,241.5 C 84.8333,241.5 85.1667,241.5 85.5,241.5C 85.7088,252.194 85.3755,262.86 84.5,273.5C 83.5,273.5 82.5,273.5 81.5,273.5C 81.5,271.5 81.5,269.5 81.5,267.5C 82.1174,267.611 82.6174,267.944 83,268.5C 83.4935,266.866 83.6602,265.199 83.5,263.5C 83.3646,256.138 83.6979,248.804 84.5,241.5 Z"/></g>
<g><path style="opacity:0.999" fill="#f9f9f9" d="M 287.5,292.5 C 287.213,300.886 287.713,309.219 289,317.5C 289.953,314.568 290.453,311.568 290.5,308.5C 290.668,298.486 291.168,288.486 292,278.5C 292.374,276.509 293.207,274.842 294.5,273.5C 295.568,274.434 296.901,274.768 298.5,274.5C 299.222,274.918 299.722,275.584 300,276.5C 300.5,283.158 300.666,289.825 300.5,296.5C 300.334,301.844 300.501,307.177 301,312.5C 301.333,312.833 301.667,313.167 302,313.5C 302.494,311.866 302.66,310.199 302.5,308.5C 303.768,306.095 304.435,303.428 304.5,300.5C 304.5,300.167 304.5,299.833 304.5,299.5C 305.117,299.389 305.617,299.056 306,298.5C 307.043,295.243 307.543,291.91 307.5,288.5C 309.292,288.366 310.958,288.699 312.5,289.5C 311.187,297.43 310.52,305.43 310.5,313.5C 308.587,327.641 307.254,341.974 306.5,356.5C 305.572,383.818 305.239,411.152 305.5,438.5C 294.167,438.5 282.833,438.5 271.5,438.5C 272.023,430.51 272.356,422.51 272.5,414.5C 273.085,404.353 272.252,394.353 270,384.5C 269.292,383.619 268.458,382.953 267.5,382.5C 267.682,380.409 267.348,378.409 266.5,376.5C 264.11,374.733 262.443,372.4 261.5,369.5C 260.423,368.295 259.09,367.628 257.5,367.5C 255.574,363.574 253.24,359.907 250.5,356.5C 248.375,353.912 247.042,350.912 246.5,347.5C 244.936,337.374 240.436,328.707 233,321.5C 232.517,320.552 232.351,319.552 232.5,318.5C 236.747,318.178 240.747,319.011 244.5,321C 246.966,323.479 249.299,325.979 251.5,328.5C 254.379,332.925 256.713,337.592 258.5,342.5C 258.557,343.609 258.89,344.609 259.5,345.5C 260.077,347.652 261.244,347.985 263,346.5C 263.685,335.839 264.185,325.172 264.5,314.5C 267.833,314.5 271.167,314.5 274.5,314.5C 274.051,316.977 274.717,318.977 276.5,320.5C 277.487,317.232 277.82,313.898 277.5,310.5C 277.5,309.833 277.5,309.167 277.5,308.5C 278.058,296.605 279.058,284.605 280.5,272.5C 282.042,271.253 283.542,271.253 285,272.5C 286.047,279.268 286.88,285.935 287.5,292.5 Z"/></g>
<g><path style="opacity:0.353" fill="#888888" d="M 60.5,269.5 C 57.2548,271.399 54.2548,273.732 51.5,276.5C 48.4807,275.174 45.4807,275.174 42.5,276.5C 45.3417,273.098 48.5083,272.765 52,275.5C 53.8476,271.398 56.6809,269.398 60.5,269.5 Z"/></g>
<g><path style="opacity:0.177" fill="#830115" d="M 178.5,262.5 C 179.931,262.881 180.764,263.881 181,265.5C 181.34,276.847 181.84,288.18 182.5,299.5C 181.106,287.298 179.773,274.965 178.5,262.5 Z"/></g>
<g><path style="opacity:0.998" fill="#f4f1f1" d="M 273.5,277.5 C 273.5,279.167 273.5,280.833 273.5,282.5C 273.334,289.175 273.5,295.842 274,302.5C 274.232,303.737 274.732,304.737 275.5,305.5C 275.5,305.833 275.5,306.167 275.5,306.5C 275.328,307.492 275.662,308.158 276.5,308.5C 276.5,308.833 276.5,309.167 276.5,309.5C 272.5,309.5 268.5,309.5 264.5,309.5C 264.5,305.5 264.5,301.5 264.5,297.5C 265.38,290.877 265.713,284.211 265.5,277.5C 268.129,276.286 270.796,276.286 273.5,277.5 Z"/></g>
<g><path style="opacity:1" fill="#aa0416" d="M 646.5,267.5 C 648.231,278.276 649.231,289.276 649.5,300.5C 649.497,303.355 649.164,306.022 648.5,308.5C 648.217,307.711 647.717,307.044 647,306.5C 646.667,295.833 646.333,285.167 646,274.5C 645.667,274.167 645.333,273.833 645,273.5C 644.667,279.5 644.333,285.5 644,291.5C 643.841,286.084 643.174,280.75 642,275.5C 641.586,275.957 641.086,276.291 640.5,276.5C 639.501,289.817 639.167,303.15 639.5,316.5C 638.5,316.5 637.5,316.5 636.5,316.5C 636.514,320.475 635.181,323.808 632.5,326.5C 633.168,307.43 633.834,288.763 634.5,270.5C 636.497,269.191 638.497,267.858 640.5,266.5C 642.728,267.219 644.561,268.552 646,270.5C 646.483,269.552 646.649,268.552 646.5,267.5 Z"/></g>
<g><path style="opacity:0.082" fill="#ca8a93" d="M 472.5,265.5 C 472.477,267.927 471.977,270.26 471,272.5C 469.636,276.563 467.802,280.229 465.5,283.5C 465.733,276.472 468.066,270.472 472.5,265.5 Z"/></g>
<g><path style="opacity:0.118" fill="#676767" d="M 42.5,276.5 C 42.0248,278.784 41.0248,280.784 39.5,282.5C 39.1667,282.5 38.8333,282.5 38.5,282.5C 39.3403,280.147 40.6736,278.147 42.5,276.5 Z"/></g>
<g><path style="opacity:0.196" fill="#82585e" d="M 478.5,272.5 C 479.376,272.369 480.043,272.702 480.5,273.5C 482.915,278.428 484.915,283.428 486.5,288.5C 482.894,283.714 480.228,278.381 478.5,272.5 Z"/></g>
<g><path style="opacity:0.365" fill="#880f10" d="M 312.5,287.5 C 311.005,287.011 309.671,286.345 308.5,285.5C 308.843,283.775 309.843,283.275 311.5,284C 312.337,285.011 312.67,286.178 312.5,287.5 Z"/></g>
<g><path style="opacity:0.216" fill="#cc858b" d="M 324.5,283.5 C 326.997,284.129 328.33,285.796 328.5,288.5C 326.469,287.461 325.136,285.795 324.5,283.5 Z"/></g>
<g><path style="opacity:0.314" fill="#cf9597" d="M 465.5,283.5 C 465.405,285.786 464.738,287.786 463.5,289.5C 463.054,286.99 463.72,284.99 465.5,283.5 Z"/></g>
<g><path style="opacity:0.729" fill="#930319" d="M 209.5,264.5 C 208.483,269.231 207.15,273.897 205.5,278.5C 205.529,280.029 206.196,281.196 207.5,282C 206.044,284.266 205.21,286.766 205,289.5C 206.194,279.518 205.194,279.185 202,288.5C 200.989,289.337 199.822,289.67 198.5,289.5C 197.355,284.296 196.689,278.963 196.5,273.5C 198.108,277.59 199.275,281.923 200,286.5C 203.469,279.246 206.636,271.913 209.5,264.5 Z"/></g>
<g><path style="opacity:0.349" fill="#a29594" d="M 308.5,285.5 C 309.671,286.345 311.005,287.011 312.5,287.5C 312.5,288.167 312.5,288.833 312.5,289.5C 310.958,288.699 309.292,288.366 307.5,288.5C 307.543,291.91 307.043,295.243 306,298.5C 305.617,299.056 305.117,299.389 304.5,299.5C 304.3,294.287 305.633,289.62 308.5,285.5 Z"/></g>
<g><path style="opacity:0.039" fill="#dabdc0" d="M 463.5,289.5 C 463.715,291.179 463.048,292.179 461.5,292.5C 461.285,290.821 461.952,289.821 463.5,289.5 Z"/></g>
<g><path style="opacity:0.125" fill="#888686" d="M 285.5,270.5 C 287.344,277.654 288.011,284.987 287.5,292.5C 286.88,285.935 286.047,279.268 285,272.5C 283.542,271.253 282.042,271.253 280.5,272.5C 279.058,284.605 278.058,296.605 277.5,308.5C 277.167,307.167 276.833,307.167 276.5,308.5C 275.662,308.158 275.328,307.492 275.5,306.5C 276.833,306.167 276.833,305.833 275.5,305.5C 274.732,304.737 274.232,303.737 274,302.5C 273.5,295.842 273.334,289.175 273.5,282.5C 274.434,289.365 275.434,296.365 276.5,303.5C 277.332,293.851 277.832,284.184 278,274.5C 278.232,273.263 278.732,272.263 279.5,271.5C 281.379,270.659 283.379,270.325 285.5,270.5 Z"/></g>
<g><path style="opacity:1" fill="#c44242" d="M 394.5,259.5 C 394.923,263.747 395.923,267.747 397.5,271.5C 399.665,285.323 399.998,299.323 398.5,313.5C 398.167,313.5 397.833,313.5 397.5,313.5C 397.667,301.162 397.5,288.829 397,276.5C 395.36,271.383 393.86,266.216 392.5,261C 392.15,259.743 391.483,259.409 390.5,260C 391.731,261.183 391.731,262.349 390.5,263.5C 389.824,262.398 389.158,261.398 388.5,260.5C 389.967,257.103 391.967,256.77 394.5,259.5 Z"/></g>
<g><path style="opacity:0.435" fill="#909090" d="M 100.5,290.5 C 103.78,293.388 105.78,297.055 106.5,301.5C 103.192,298.55 101.192,294.884 100.5,290.5 Z"/></g>
<g><path style="opacity:0.345" fill="#a01f2c" d="M 265.5,277.5 C 265.713,284.211 265.38,290.877 264.5,297.5C 263.596,298.209 263.263,299.209 263.5,300.5C 262.201,303.395 260.535,306.062 258.5,308.5C 259.766,303.3 261.599,298.3 264,293.5C 264.173,287.984 264.673,282.651 265.5,277.5 Z"/></g>
<g><path style="opacity:1" fill="#e9b8b8" d="M 402.5,270.5 C 404.699,277.365 405.699,284.532 405.5,292C 405.136,299.169 404.803,306.336 404.5,313.5C 402.742,319.171 401.075,324.838 399.5,330.5C 403.548,310.709 404.548,290.709 402.5,270.5 Z"/></g>
<g><path style="opacity:0.494" fill="#6a454e" d="M 586.5,302.5 C 584.896,301.713 584.229,300.38 584.5,298.5C 583.041,298.433 581.708,298.766 580.5,299.5C 580.722,296.924 582.055,296.09 584.5,297C 585.464,298.725 586.131,300.559 586.5,302.5 Z"/></g>
<g><path style="opacity:0.494" fill="#ca8487" d="M 328.5,288.5 C 333.577,292.654 336.577,297.987 337.5,304.5C 333.715,299.651 330.715,294.318 328.5,288.5 Z"/></g>
<g><path style="opacity:0.788" fill="#af777e" d="M 552.5,281.5 C 550.632,289.969 548.632,298.303 546.5,306.5C 546.167,306.5 545.833,306.5 545.5,306.5C 545.485,302.44 545.985,298.44 547,294.5C 548.959,290.096 550.792,285.762 552.5,281.5 Z"/></g>
<g><path style="opacity:0.482" fill="#734f56" d="M 572.5,302.5 C 569.54,301.584 568.207,302.918 568.5,306.5C 568.167,306.5 567.833,306.5 567.5,306.5C 567.318,304.409 567.652,302.409 568.5,300.5C 570.833,299.059 572.166,299.725 572.5,302.5 Z"/></g>
<g><path style="opacity:0.969" fill="#c59297" d="M 586.5,302.5 C 586.5,303.833 586.5,305.167 586.5,306.5C 584.631,308.576 582.464,308.909 580,307.5C 579.826,312.351 579.326,317.018 578.5,321.5C 578.334,315.824 578.501,310.157 579,304.5C 579.198,302.618 579.698,300.952 580.5,299.5C 581.708,298.766 583.041,298.433 584.5,298.5C 584.229,300.38 584.896,301.713 586.5,302.5 Z"/></g>
<g><path style="opacity:0.416" fill="#606060" d="M 304.5,300.5 C 304.435,303.428 303.768,306.095 302.5,308.5C 302.294,305.505 302.96,302.838 304.5,300.5 Z"/></g>
<g><path style="opacity:0.675" fill="#c77a7d" d="M 461.5,292.5 C 459.927,300.303 456.927,307.303 452.5,313.5C 452.814,310.053 453.648,306.72 455,303.5C 456.977,300.411 458.477,297.077 459.5,293.5C 459.957,292.702 460.624,292.369 461.5,292.5 Z"/></g>
<g><path style="opacity:0.157" fill="#626362" d="M 264.5,297.5 C 264.5,301.5 264.5,305.5 264.5,309.5C 263.833,309.833 263.167,310.167 262.5,310.5C 263.324,307.236 263.658,303.902 263.5,300.5C 263.263,299.209 263.596,298.209 264.5,297.5 Z"/></g>
<g><path style="opacity:0.055" fill="#8f8f8f" d="M 312.5,289.5 C 313.16,290.964 313.493,292.631 313.5,294.5C 312.898,300.851 312.232,307.184 311.5,313.5C 311.167,313.5 310.833,313.5 310.5,313.5C 310.52,305.43 311.187,297.43 312.5,289.5 Z"/></g>
<g><path style="opacity:0.192" fill="#cf8e94" d="M 337.5,304.5 C 339.997,305.129 341.33,306.796 341.5,309.5C 339.065,308.73 337.731,307.063 337.5,304.5 Z"/></g>
<g><path style="opacity:0.471" fill="#6a6a6a" d="M 106.5,301.5 C 109.858,304.937 110.191,308.603 107.5,312.5C 107.677,308.766 107.344,305.099 106.5,301.5 Z"/></g>
<g><path style="opacity:0.992" fill="#e7a3ab" d="M 572.5,302.5 C 573.441,304.05 574.107,305.716 574.5,307.5C 574.5,308.5 574.5,309.5 574.5,310.5C 572.5,310.833 570.5,311.167 568.5,311.5C 568.5,309.833 568.5,308.167 568.5,306.5C 568.207,302.918 569.54,301.584 572.5,302.5 Z"/></g>
<g><path style="opacity:1" fill="#e39da6" d="M 598.5,307.5 C 598.714,309.144 598.38,310.644 597.5,312C 595.398,311.744 593.398,311.911 591.5,312.5C 591.68,308.424 592.68,304.591 594.5,301C 595.449,300.383 596.282,300.549 597,301.5C 597.315,303.586 597.815,305.586 598.5,307.5 Z"/></g>
<g><path style="opacity:0.035" fill="#71050f" d="M 686.5,313.5 C 683.224,313.144 680.557,314.144 678.5,316.5C 678.672,315.508 678.338,314.842 677.5,314.5C 677.862,311.962 677.362,309.295 676,306.5C 673.519,304.686 670.685,304.02 667.5,304.5C 671.441,301.684 674.941,302.35 678,306.5C 678.333,308.833 678.667,311.167 679,313.5C 681.623,310.876 684.123,310.876 686.5,313.5 Z"/></g>
<g><path style="opacity:0.494" fill="#898989" d="M 287.5,292.5 C 287.856,298.077 288.856,303.41 290.5,308.5C 290.453,311.568 289.953,314.568 289,317.5C 287.713,309.219 287.213,300.886 287.5,292.5 Z"/></g>
<g><path style="opacity:0.999" fill="#fbfbfb" d="M 586.5,306.5 C 586.513,319.582 587.346,332.582 589,345.5C 590.128,343.655 590.628,341.655 590.5,339.5C 593.881,339.46 597.214,339.793 600.5,340.5C 600.833,340.5 601.167,340.5 601.5,340.5C 601.5,342.833 601.5,345.167 601.5,347.5C 601.169,355.528 601.502,363.528 602.5,371.5C 604.111,370.68 604.778,369.346 604.5,367.5C 605.376,367.631 606.043,367.298 606.5,366.5C 609.581,359.22 613.581,352.553 618.5,346.5C 619.78,345.069 621.447,344.402 623.5,344.5C 623.5,344.833 623.5,345.167 623.5,345.5C 623.604,348.09 622.937,350.423 621.5,352.5C 621.685,353.584 622.018,354.584 622.5,355.5C 619.86,359.414 618.193,363.748 617.5,368.5C 617.567,369.959 617.234,371.292 616.5,372.5C 614.309,376.223 612.643,380.223 611.5,384.5C 610.5,386.833 608.833,388.5 606.5,389.5C 601.904,392.391 599.237,396.391 598.5,401.5C 597.361,404.918 596.028,408.251 594.5,411.5C 593.778,411.918 593.278,412.584 593,413.5C 592.378,421.852 592.545,430.186 593.5,438.5C 583.5,438.5 573.5,438.5 563.5,438.5C 565.322,405.046 562.988,372.046 556.5,339.5C 556.498,333.477 556.165,327.477 555.5,321.5C 557.451,321.773 558.951,321.107 560,319.5C 560.278,320.416 560.778,321.082 561.5,321.5C 562.474,326.064 562.474,330.564 561.5,335C 564.145,336.287 565.145,338.453 564.5,341.5C 565.5,341.5 566.5,341.5 567.5,341.5C 568.029,331.842 568.362,322.175 568.5,312.5C 569.833,312.5 571.167,312.5 572.5,312.5C 574.248,322.757 575.581,333.09 576.5,343.5C 577.795,340.988 578.461,338.321 578.5,335.5C 578.5,332.5 578.5,329.5 578.5,326.5C 578.5,324.833 578.5,323.167 578.5,321.5C 579.326,317.018 579.826,312.351 580,307.5C 582.464,308.909 584.631,308.576 586.5,306.5 Z"/></g>
<g><path style="opacity:0.873" fill="#bc3934" d="M 264.5,309.5 C 268.5,309.5 272.5,309.5 276.5,309.5C 276.5,309.833 276.5,310.167 276.5,310.5C 276.586,311.496 276.252,312.329 275.5,313C 271.179,313.499 266.846,313.666 262.5,313.5C 262.5,312.5 262.5,311.5 262.5,310.5C 263.167,310.167 263.833,309.833 264.5,309.5 Z"/></g>
<g><path style="opacity:0.259" fill="#5a5a5a" d="M 300.5,296.5 C 301.167,300.5 301.833,304.5 302.5,308.5C 302.66,310.199 302.494,311.866 302,313.5C 301.667,313.167 301.333,312.833 301,312.5C 300.501,307.177 300.334,301.844 300.5,296.5 Z"/></g>
<g><path style="opacity:0.122" fill="#d69c9f" d="M 341.5,309.5 C 342.496,309.414 343.329,309.748 344,310.5C 346.179,314.198 348.346,317.864 350.5,321.5C 350.823,328.022 350.49,334.355 349.5,340.5C 349.829,334.463 349.496,328.463 348.5,322.5C 345.27,318.615 342.936,314.282 341.5,309.5 Z"/></g>
<g><path style="opacity:0.997" fill="#f6f5f5" d="M 598.5,307.5 C 599.477,310.287 599.81,313.287 599.5,316.5C 599.5,323.167 599.5,329.833 599.5,336.5C 596.833,336.5 594.167,336.5 591.5,336.5C 591.5,329.167 591.5,321.833 591.5,314.5C 591.5,313.833 591.5,313.167 591.5,312.5C 593.398,311.911 595.398,311.744 597.5,312C 598.38,310.644 598.714,309.144 598.5,307.5 Z"/></g>
<g><path style="opacity:0.169" fill="#513336" d="M 545.5,306.5 C 545.833,306.5 546.167,306.5 546.5,306.5C 544.211,327.92 542.877,349.253 542.5,370.5C 541.763,349.058 542.763,327.724 545.5,306.5 Z"/></g>
<g><path style="opacity:0.631" fill="#850316" d="M 186.5,311.5 C 187.376,311.369 188.043,311.702 188.5,312.5C 190.947,319.963 192.281,327.63 192.5,335.5C 190.526,327.606 188.526,319.606 186.5,311.5 Z"/></g>
<g><path style="opacity:1" fill="#c90222" d="M 652.5,338.5 C 654.363,340.705 656.697,342.039 659.5,342.5C 660.167,343.833 660.833,345.167 661.5,346.5C 663.689,349.121 666.022,349.121 668.5,346.5C 670.49,342.922 670.823,339.255 669.5,335.5C 670.931,335.881 671.764,336.881 672,338.5C 672.383,337.944 672.883,337.611 673.5,337.5C 672.793,340.786 672.46,344.119 672.5,347.5C 673.833,347.5 675.167,347.5 676.5,347.5C 679.59,346.335 680.924,344.002 680.5,340.5C 681.675,340.719 682.675,340.386 683.5,339.5C 682.593,337.744 682.593,335.911 683.5,334C 685.581,329.461 687.581,324.961 689.5,320.5C 690.822,323.768 691.489,327.435 691.5,331.5C 691.115,340.194 690.448,348.861 689.5,357.5C 688.704,362.147 688.037,366.814 687.5,371.5C 686.25,371.577 685.417,372.244 685,373.5C 684.333,380.167 684.333,386.833 685,393.5C 685.278,394.416 685.778,395.082 686.5,395.5C 686.5,396.5 686.5,397.5 686.5,398.5C 685.512,403.64 685.179,408.974 685.5,414.5C 672.167,414.5 658.833,414.5 645.5,414.5C 646.461,403.181 646.628,391.848 646,380.5C 639.637,371.319 633.137,362.319 626.5,353.5C 626.023,350.562 625.023,347.896 623.5,345.5C 623.5,345.167 623.5,344.833 623.5,344.5C 623.995,342.518 624.495,340.518 625,338.5C 627.275,334.268 629.775,330.268 632.5,326.5C 635.181,323.808 636.514,320.475 636.5,316.5C 637.5,316.5 638.5,316.5 639.5,316.5C 641.455,315.385 643.288,314.052 645,312.5C 645.49,313.793 645.657,315.127 645.5,316.5C 649.514,316.334 653.514,316.501 657.5,317C 658.833,318.333 658.833,319.667 657.5,321C 655.866,321.494 654.199,321.66 652.5,321.5C 652.615,325.87 651.948,330.037 650.5,334C 650.569,335.986 651.235,337.486 652.5,338.5 Z"/></g>
<g><path style="opacity:0.506" fill="#8e8e8e" d="M 107.5,312.5 C 105.237,317.365 102.237,321.698 98.5,325.5C 99.8827,320.106 102.883,315.772 107.5,312.5 Z"/></g>
<g><path style="opacity:0.106" fill="#cb8b8d" d="M 452.5,313.5 C 451.885,318.048 450.219,322.048 447.5,325.5C 447.814,322.053 448.648,318.72 450,315.5C 450.417,314.244 451.25,313.577 452.5,313.5 Z"/></g>
<g><path style="opacity:1" fill="#d88185" d="M 397.5,313.5 C 397.833,313.5 398.167,313.5 398.5,313.5C 398.102,317.761 397.102,321.761 395.5,325.5C 395.5,324.833 395.5,324.167 395.5,323.5C 395.899,319.989 396.566,316.656 397.5,313.5 Z"/></g>
<g><path style="opacity:1" fill="#d59fa7" d="M 561.5,321.5 C 560.778,321.082 560.278,320.416 560,319.5C 558.951,321.107 557.451,321.773 555.5,321.5C 554.532,319.393 554.198,317.059 554.5,314.5C 554.066,311.834 555.066,310.667 557.5,311C 559.826,314.146 561.159,317.646 561.5,321.5 Z"/></g>
<g><path style="opacity:1" fill="#bb0619" d="M 648.5,308.5 C 648.5,308.833 648.5,309.167 648.5,309.5C 647.659,311.379 647.325,313.379 647.5,315.5C 653.07,316.584 657.57,314.917 661,310.5C 662.009,308.975 662.509,307.308 662.5,305.5C 658.51,306.826 654.51,308.16 650.5,309.5C 649.264,299.956 653.264,296.789 662.5,300C 664.317,301.8 665.484,303.966 666,306.5C 666.717,305.956 667.217,305.289 667.5,304.5C 670.685,304.02 673.519,304.686 676,306.5C 677.362,309.295 677.862,311.962 677.5,314.5C 677.328,315.492 677.662,316.158 678.5,316.5C 680.557,314.144 683.224,313.144 686.5,313.5C 688.262,314.262 689.262,315.596 689.5,317.5C 689.5,318.5 689.5,319.5 689.5,320.5C 687.581,324.961 685.581,329.461 683.5,334C 682.593,335.911 682.593,337.744 683.5,339.5C 682.675,340.386 681.675,340.719 680.5,340.5C 680.924,344.002 679.59,346.335 676.5,347.5C 677.072,345.745 677.906,344.078 679,342.5C 680.205,339.132 679.205,336.798 676,335.5C 674.699,335.639 673.866,336.305 673.5,337.5C 672.883,337.611 672.383,337.944 672,338.5C 671.764,336.881 670.931,335.881 669.5,335.5C 667.167,335.5 664.833,335.5 662.5,335.5C 661.833,334.5 661.167,333.5 660.5,332.5C 660.389,331.883 660.056,331.383 659.5,331C 653.082,329.393 650.749,331.893 652.5,338.5C 651.235,337.486 650.569,335.986 650.5,334C 651.948,330.037 652.615,325.87 652.5,321.5C 654.199,321.66 655.866,321.494 657.5,321C 658.833,319.667 658.833,318.333 657.5,317C 653.514,316.501 649.514,316.334 645.5,316.5C 645.657,315.127 645.49,313.793 645,312.5C 643.288,314.052 641.455,315.385 639.5,316.5C 639.167,303.15 639.501,289.817 640.5,276.5C 641.086,276.291 641.586,275.957 642,275.5C 643.174,280.75 643.841,286.084 644,291.5C 644.333,285.5 644.667,279.5 645,273.5C 645.333,273.833 645.667,274.167 646,274.5C 646.333,285.167 646.667,295.833 647,306.5C 647.717,307.044 648.217,307.711 648.5,308.5 Z"/></g>
<g><path style="opacity:1" fill="#f4e8e8" d="M 648.5,309.5 C 649.167,309.5 649.833,309.5 650.5,309.5C 654.51,308.16 658.51,306.826 662.5,305.5C 662.509,307.308 662.009,308.975 661,310.5C 657.57,314.917 653.07,316.584 647.5,315.5C 647.325,313.379 647.659,311.379 648.5,309.5 Z"/></g>
<g><path style="opacity:0.078" fill="#535453" d="M 574.5,307.5 C 575.879,313.617 576.546,319.95 576.5,326.5C 575.335,321.367 574.668,316.034 574.5,310.5C 574.5,309.5 574.5,308.5 574.5,307.5 Z"/></g>
<g><path style="opacity:1" fill="#c04646" d="M 404.5,313.5 C 404.82,316.898 404.487,320.232 403.5,323.5C 402.361,328.917 400.695,333.917 398.5,338.5C 398.833,335.833 399.167,333.167 399.5,330.5C 401.075,324.838 402.742,319.171 404.5,313.5 Z"/></g>
<g><path style="opacity:0.333" fill="#cf9298" d="M 447.5,326.5 C 447.104,329.721 445.771,332.388 443.5,334.5C 443.532,331.006 444.865,328.339 447.5,326.5 Z"/></g>
<g><path style="opacity:0.612" fill="#8c898a" d="M 554.5,314.5 C 554.198,317.059 554.532,319.393 555.5,321.5C 556.165,327.477 556.498,333.477 556.5,339.5C 553.792,331.292 553.125,322.959 554.5,314.5 Z"/></g>
<g><path style="opacity:0.774" fill="#99021a" d="M 689.5,317.5 C 691.61,318.453 692.777,320.119 693,322.5C 694.377,334.567 693.211,346.234 689.5,357.5C 690.448,348.861 691.115,340.194 691.5,331.5C 691.489,327.435 690.822,323.768 689.5,320.5C 689.5,319.5 689.5,318.5 689.5,317.5 Z"/></g>
<g><path style="opacity:0.533" fill="#8a2832" d="M 124.5,340.5 C 123.034,339.653 122.2,338.32 122,336.5C 121.722,337.416 121.222,338.082 120.5,338.5C 120.731,335.215 119.397,332.715 116.5,331C 115.563,330.308 114.897,330.475 114.5,331.5C 113.535,330.279 113.702,328.946 115,327.5C 120.128,330.433 123.295,334.766 124.5,340.5 Z"/></g>
<g><path style="opacity:0.714" fill="#9c1e27" d="M 134.5,334.5 C 134.167,334.5 133.833,334.5 133.5,334.5C 129.444,329.064 127.777,330.064 128.5,337.5C 129.833,337.5 131.167,337.5 132.5,337.5C 131.432,338.434 130.099,338.768 128.5,338.5C 127.437,335.783 126.437,332.949 125.5,330C 126.313,328.115 127.647,327.449 129.5,328C 131.79,329.777 133.457,331.944 134.5,334.5 Z"/></g>
<g><path style="opacity:0.301" fill="#be454f" d="M 350.5,321.5 C 352.03,324.695 352.696,328.195 352.5,332C 352.439,338.123 351.439,343.956 349.5,349.5C 349.5,347.833 349.5,346.167 349.5,344.5C 349.5,343.167 349.5,341.833 349.5,340.5C 350.49,334.355 350.823,328.022 350.5,321.5 Z"/></g>
<g><path style="opacity:0.275" fill="#a06e75" d="M 488.5,292.5 C 491.98,296.793 494.48,301.793 496,307.5C 496.333,307.167 496.667,306.833 497,306.5C 497.723,309.22 499.223,311.387 501.5,313C 501.547,321.38 501.38,329.88 501,338.5C 500.386,343.015 499.552,347.348 498.5,351.5C 499.3,341.175 499.466,330.841 499,320.5C 495.78,311.06 492.28,301.727 488.5,292.5 Z"/></g>
<g><path style="opacity:0.251" fill="#878485" d="M 586.5,302.5 C 588.117,313.285 588.95,324.285 589,335.5C 589.675,328.331 590.509,321.331 591.5,314.5C 591.5,321.833 591.5,329.167 591.5,336.5C 590.596,337.209 590.263,338.209 590.5,339.5C 590.628,341.655 590.128,343.655 589,345.5C 587.346,332.582 586.513,319.582 586.5,306.5C 586.5,305.167 586.5,303.833 586.5,302.5 Z"/></g>
<g><path style="opacity:0.973" fill="#ce0c26" d="M 133.5,334.5 C 133.737,335.791 133.404,336.791 132.5,337.5C 131.167,337.5 129.833,337.5 128.5,337.5C 127.777,330.064 129.444,329.064 133.5,334.5 Z"/></g>
<g><path style="opacity:1" fill="#be3f40" d="M 395.5,323.5 C 395.5,324.167 395.5,324.833 395.5,325.5C 394.422,328.402 393.756,331.402 393.5,334.5C 391.723,337.505 390.723,340.838 390.5,344.5C 390.074,348.427 389.074,352.093 387.5,355.5C 388.752,347.166 390.252,338.833 392,330.5C 393.213,328.075 394.379,325.741 395.5,323.5 Z"/></g>
<g><path style="opacity:0.498" fill="#938b8b" d="M 599.5,316.5 C 600.216,323.726 601.216,331.06 602.5,338.5C 602.457,339.416 602.124,340.083 601.5,340.5C 601.167,340.5 600.833,340.5 600.5,340.5C 600.768,338.901 600.434,337.568 599.5,336.5C 599.5,329.833 599.5,323.167 599.5,316.5 Z"/></g>
<g><path style="opacity:1" fill="#c41226" d="M 120.5,338.5 C 119.432,339.434 118.099,339.768 116.5,339.5C 116.5,338.833 116.167,338.5 115.5,338.5C 114.781,336.236 114.448,333.903 114.5,331.5C 114.897,330.475 115.563,330.308 116.5,331C 119.397,332.715 120.731,335.215 120.5,338.5 Z"/></g>
<g><path style="opacity:0.035" fill="#323232" d="M 578.5,326.5 C 578.5,329.5 578.5,332.5 578.5,335.5C 577.778,335.918 577.278,336.584 577,337.5C 576.503,335.19 576.337,332.857 576.5,330.5C 577.167,329.167 577.833,327.833 578.5,326.5 Z"/></g>
<g><path style="opacity:0.65" fill="#cbcaca" d="M 276.5,310.5 C 276.833,310.5 277.167,310.5 277.5,310.5C 277.82,313.898 277.487,317.232 276.5,320.5C 274.717,318.977 274.051,316.977 274.5,314.5C 271.167,314.5 267.833,314.5 264.5,314.5C 264.185,325.172 263.685,335.839 263,346.5C 261.244,347.985 260.077,347.652 259.5,345.5C 260.117,345.611 260.617,345.944 261,346.5C 261.495,344.527 261.662,342.527 261.5,340.5C 261.786,331.498 262.119,322.498 262.5,313.5C 266.846,313.666 271.179,313.499 275.5,313C 276.252,312.329 276.586,311.496 276.5,310.5 Z"/></g>
<g><path style="opacity:0.059" fill="#464545" d="M 567.5,307.5 C 567.618,318.527 567.118,329.527 566,340.5C 565.498,337.487 564.998,334.487 564.5,331.5C 565.941,323.552 566.941,315.552 567.5,307.5 Z"/></g>
<g><path style="opacity:1" fill="#faf2f3" d="M 662.5,335.5 C 664.833,335.5 667.167,335.5 669.5,335.5C 670.823,339.255 670.49,342.922 668.5,346.5C 666.022,349.121 663.689,349.121 661.5,346.5C 661.244,342.731 661.577,339.064 662.5,335.5 Z"/></g>
<g><path style="opacity:0.525" fill="#86121e" d="M 113.5,343.5 C 112.833,343.5 112.167,343.5 111.5,343.5C 110.7,341.318 109.2,339.651 107,338.5C 106.503,340.81 106.337,343.143 106.5,345.5C 104.982,343.319 103.982,340.819 103.5,338C 103.613,336.72 104.28,335.887 105.5,335.5C 108.716,337.744 111.383,340.41 113.5,343.5 Z"/></g>
<g><path style="opacity:0.161" fill="#d3969b" d="M 443.5,334.5 C 443.655,337.716 442.655,340.383 440.5,342.5C 440.023,339.083 441.023,336.416 443.5,334.5 Z"/></g>
<g><path style="opacity:0.469" fill="#c0bfbf" d="M 567.5,306.5 C 567.833,306.5 568.167,306.5 568.5,306.5C 568.5,308.167 568.5,309.833 568.5,311.5C 570.5,311.167 572.5,310.833 574.5,310.5C 574.668,316.034 575.335,321.367 576.5,326.5C 576.5,327.833 576.5,329.167 576.5,330.5C 576.337,332.857 576.503,335.19 577,337.5C 577.278,336.584 577.778,335.918 578.5,335.5C 578.461,338.321 577.795,340.988 576.5,343.5C 575.581,333.09 574.248,322.757 572.5,312.5C 571.167,312.5 569.833,312.5 568.5,312.5C 568.362,322.175 568.029,331.842 567.5,341.5C 566.5,341.5 565.5,341.5 564.5,341.5C 565.145,338.453 564.145,336.287 561.5,335C 562.474,330.564 562.474,326.064 561.5,321.5C 563.101,324.55 564.101,327.884 564.5,331.5C 564.998,334.487 565.498,337.487 566,340.5C 567.118,329.527 567.618,318.527 567.5,307.5C 567.5,307.167 567.5,306.833 567.5,306.5 Z"/></g>
<g><path style="opacity:1" fill="#fbb4bf" d="M 591.5,336.5 C 594.167,336.5 596.833,336.5 599.5,336.5C 600.434,337.568 600.768,338.901 600.5,340.5C 597.214,339.793 593.881,339.46 590.5,339.5C 590.263,338.209 590.596,337.209 591.5,336.5 Z"/></g>
<g><path style="opacity:1" fill="#f8f1f2" d="M 660.5,332.5 C 660.384,335.86 660.051,339.193 659.5,342.5C 656.697,342.039 654.363,340.705 652.5,338.5C 650.749,331.893 653.082,329.393 659.5,331C 660.056,331.383 660.389,331.883 660.5,332.5 Z"/></g>
<g><path style="opacity:0.125" fill="#5a5a5a" d="M 310.5,313.5 C 310.833,313.5 311.167,313.5 311.5,313.5C 310.184,328.015 308.518,342.348 306.5,356.5C 307.254,341.974 308.587,327.641 310.5,313.5 Z"/></g>
<g><path style="opacity:1" fill="#f6e6e6" d="M 676.5,347.5 C 675.167,347.5 673.833,347.5 672.5,347.5C 672.46,344.119 672.793,340.786 673.5,337.5C 673.866,336.305 674.699,335.639 676,335.5C 679.205,336.798 680.205,339.132 679,342.5C 677.906,344.078 677.072,345.745 676.5,347.5 Z"/></g>
<g><path style="opacity:0.388" fill="#5a3e42" d="M 128.5,340.5 C 130.614,341.784 131.614,343.784 131.5,346.5C 130.13,344.75 129.13,342.75 128.5,340.5 Z"/></g>
<g><path style="opacity:1" fill="#e18f8d" d="M 393.5,334.5 C 393.277,338.162 392.277,341.495 390.5,344.5C 390.723,340.838 391.723,337.505 393.5,334.5 Z"/></g>
<g><path style="opacity:0.31" fill="#885a5e" d="M 115.5,338.5 C 116.167,338.5 116.5,338.833 116.5,339.5C 119.047,345.814 121.381,352.147 123.5,358.5C 123.5,359.833 123.5,361.167 123.5,362.5C 123.328,363.492 123.662,364.158 124.5,364.5C 126.175,366.179 127.008,368.179 127,370.5C 122.894,366.287 120.394,361.287 119.5,355.5C 120.222,355.918 120.722,356.584 121,357.5C 121.167,357 121.333,356.5 121.5,356C 118.771,350.384 116.771,344.55 115.5,338.5 Z"/></g>
<g><path style="opacity:1" fill="#cf1a30" d="M 111.5,343.5 C 111.5,344.5 111.5,345.5 111.5,346.5C 110.167,346.5 108.833,346.5 107.5,346.5C 107.167,346.5 106.833,346.5 106.5,346.5C 106.5,346.167 106.5,345.833 106.5,345.5C 106.337,343.143 106.503,340.81 107,338.5C 109.2,339.651 110.7,341.318 111.5,343.5 Z"/></g>
<g><path style="opacity:0.031" fill="#4f4f4f" d="M 261.5,340.5 C 261.662,342.527 261.495,344.527 261,346.5C 260.617,345.944 260.117,345.611 259.5,345.5C 258.89,344.609 258.557,343.609 258.5,342.5C 259.117,342.611 259.617,342.944 260,343.5C 260.232,342.263 260.732,341.263 261.5,340.5 Z"/></g>
<g><path style="opacity:1" fill="#e98497" d="M 660.5,332.5 C 661.167,333.5 661.833,334.5 662.5,335.5C 661.577,339.064 661.244,342.731 661.5,346.5C 660.833,345.167 660.167,343.833 659.5,342.5C 660.051,339.193 660.384,335.86 660.5,332.5 Z"/></g>
<g><path style="opacity:0.988" fill="#b47b81" d="M 124.5,340.5 C 127.927,345.016 130.593,350.016 132.5,355.5C 130.224,353.669 128.391,351.336 127,348.5C 126.667,348.833 126.333,349.167 126,349.5C 125.304,346.522 124.804,343.522 124.5,340.5 Z"/></g>
<g><path style="opacity:1" fill="#f8eaea" d="M 402.5,270.5 C 404.548,290.709 403.548,310.709 399.5,330.5C 399.167,333.167 398.833,335.833 398.5,338.5C 397.346,341.452 396.346,344.452 395.5,347.5C 393.249,353.182 391.916,359.182 391.5,365.5C 390.775,369.231 389.775,372.898 388.5,376.5C 388.768,374.901 388.434,373.568 387.5,372.5C 386.631,370.283 386.298,367.95 386.5,365.5C 386.5,363.5 386.5,361.5 386.5,359.5C 386.232,357.901 386.566,356.568 387.5,355.5C 389.074,352.093 390.074,348.427 390.5,344.5C 392.277,341.495 393.277,338.162 393.5,334.5C 393.756,331.402 394.422,328.402 395.5,325.5C 397.102,321.761 398.102,317.761 398.5,313.5C 399.998,299.323 399.665,285.323 397.5,271.5C 397.338,269.473 397.505,267.473 398,265.5C 399.011,266.337 400.178,266.67 401.5,266.5C 401.232,268.099 401.566,269.432 402.5,270.5 Z"/></g>
<g><path style="opacity:0.29" fill="#8a6065" d="M 106.5,346.5 C 106.833,346.5 107.167,346.5 107.5,346.5C 109.309,349.93 110.309,353.597 110.5,357.5C 108.399,354.203 107.065,350.537 106.5,346.5 Z"/></g>
<g><path style="opacity:0.294" fill="#dec2c4" d="M 349.5,344.5 C 349.5,346.167 349.5,347.833 349.5,349.5C 348.833,349.5 348.167,349.5 347.5,349.5C 347.077,347.219 347.744,345.552 349.5,344.5 Z"/></g>
<g><path style="opacity:0.153" fill="#707070" d="M 556.5,339.5 C 562.988,372.046 565.322,405.046 563.5,438.5C 562.833,438.5 562.167,438.5 561.5,438.5C 562.731,405.332 561.065,372.332 556.5,339.5 Z"/></g>
<g><path style="opacity:0.443" fill="#7a7a7a" d="M 618.5,346.5 C 613.581,352.553 609.581,359.22 606.5,366.5C 606.043,367.298 605.376,367.631 604.5,367.5C 607.457,359.221 612.124,352.221 618.5,346.5 Z"/></g>
<g><path style="opacity:0.867" fill="#c3c3c3" d="M 38.5,282.5 C 38.8333,282.5 39.1667,282.5 39.5,282.5C 37.4037,297.633 38.9037,312.3 44,326.5C 44.9001,334.165 45.7335,341.831 46.5,349.5C 46.2983,358.742 45.2983,367.742 43.5,376.5C 44.0704,364.5 44.2371,352.5 44,340.5C 41.7965,328.482 39.4631,316.482 37,304.5C 36.3333,297.833 36.3333,291.167 37,284.5C 37.2784,283.584 37.7784,282.918 38.5,282.5 Z"/></g>
<g><path style="opacity:0.475" fill="#5c151e" d="M 177.5,352.5 C 176.041,352.433 174.708,352.766 173.5,353.5C 172.5,353.5 171.5,353.5 170.5,353.5C 172.713,351.688 175.047,351.355 177.5,352.5 Z"/></g>
<g><path style="opacity:0.89" fill="#8c2429" d="M 108.5,361.5 C 106.833,360.167 105.167,358.833 103.5,357.5C 98.2078,351.878 97.2078,352.878 100.5,360.5C 99.6618,360.842 99.3284,361.508 99.5,362.5C 97.7424,359.146 96.7424,355.479 96.5,351.5C 102.615,352.281 106.615,355.614 108.5,361.5 Z"/></g>
<g><path style="opacity:1" fill="#f9a7b2" d="M 124.5,340.5 C 124.804,343.522 125.304,346.522 126,349.5C 126.333,349.167 126.667,348.833 127,348.5C 128.391,351.336 130.224,353.669 132.5,355.5C 129.811,357.117 126.811,358.117 123.5,358.5C 121.381,352.147 119.047,345.814 116.5,339.5C 118.099,339.768 119.432,339.434 120.5,338.5C 121.222,338.082 121.722,337.416 122,336.5C 122.2,338.32 123.034,339.653 124.5,340.5 Z"/></g>
<g><path style="opacity:1" fill="#e79ca6" d="M 623.5,345.5 C 625.023,347.896 626.023,350.562 626.5,353.5C 626.167,354.5 625.5,355.167 624.5,355.5C 623.833,355.5 623.167,355.5 622.5,355.5C 622.018,354.584 621.685,353.584 621.5,352.5C 622.937,350.423 623.604,348.09 623.5,345.5 Z"/></g>
<g><path style="opacity:0.435" fill="#c98087" d="M 347.5,349.5 C 348.167,349.5 348.833,349.5 349.5,349.5C 349.326,352.874 348.826,356.207 348,359.5C 347.8,361.32 346.966,362.653 345.5,363.5C 346.074,358.817 346.74,354.15 347.5,349.5 Z"/></g>
<g><path style="opacity:1" fill="#cf1e32" d="M 103.5,357.5 C 103.5,358.5 103.5,359.5 103.5,360.5C 102.5,360.5 101.5,360.5 100.5,360.5C 97.2078,352.878 98.2078,351.878 103.5,357.5 Z"/></g>
<g><path style="opacity:1" fill="#b91225" d="M 177.5,352.5 C 177.139,356.915 175.806,360.915 173.5,364.5C 173.167,364.5 172.833,364.5 172.5,364.5C 170.278,364.441 169.278,363.275 169.5,361C 169.927,357.977 171.261,355.477 173.5,353.5C 174.708,352.766 176.041,352.433 177.5,352.5 Z"/></g>
<g><path style="opacity:0.09" fill="#716f6f" d="M 622.5,355.5 C 623.167,355.5 623.833,355.5 624.5,355.5C 621.882,359.74 619.548,364.074 617.5,368.5C 618.193,363.748 619.86,359.414 622.5,355.5 Z"/></g>
<g><path style="opacity:0.29" fill="#9e9e9e" d="M 250.5,356.5 C 253.24,359.907 255.574,363.574 257.5,367.5C 253.904,364.643 251.571,360.976 250.5,356.5 Z"/></g>
<g><path style="opacity:1" fill="#f7a5ae" d="M 133.5,334.5 C 133.833,334.5 134.167,334.5 134.5,334.5C 139.206,342.274 143.54,350.274 147.5,358.5C 147.961,363.422 149.961,367.422 153.5,370.5C 154.338,370.842 154.672,371.508 154.5,372.5C 155.209,376.635 156.875,380.302 159.5,383.5C 159.821,385.048 160.821,385.715 162.5,385.5C 162.778,377.83 163.111,370.164 163.5,362.5C 164.163,358.163 166.496,355.163 170.5,353.5C 171.5,353.5 172.5,353.5 173.5,353.5C 171.261,355.477 169.927,357.977 169.5,361C 169.278,363.275 170.278,364.441 172.5,364.5C 172.161,375.442 172.161,386.442 172.5,397.5C 170.825,400.507 170.159,403.84 170.5,407.5C 170.594,417.39 170.594,427.056 170.5,436.5C 169.866,435.053 168.699,434.387 167,434.5C 157.203,435.664 147.369,436.331 137.5,436.5C 137.66,431.434 137.16,426.434 136,421.5C 135.186,418.823 133.686,416.823 131.5,415.5C 127.402,409.405 123.735,403.072 120.5,396.5C 120.068,392.712 119.068,389.045 117.5,385.5C 114.365,384.233 113.032,381.9 113.5,378.5C 112.325,378.719 111.325,378.386 110.5,377.5C 108.851,373.818 106.518,370.818 103.5,368.5C 101.674,366.853 100.34,364.853 99.5,362.5C 99.3284,361.508 99.6618,360.842 100.5,360.5C 101.5,360.5 102.5,360.5 103.5,360.5C 103.5,359.5 103.5,358.5 103.5,357.5C 105.167,358.833 106.833,360.167 108.5,361.5C 109.419,365.326 111.419,368.326 114.5,370.5C 114.415,371.995 115.081,372.995 116.5,373.5C 117.614,372.277 117.781,370.944 117,369.5C 115.47,365.91 114.136,362.243 113,358.5C 112.329,357.748 111.496,357.414 110.5,357.5C 110.309,353.597 109.309,349.93 107.5,346.5C 108.833,346.5 110.167,346.5 111.5,346.5C 111.5,345.5 111.5,344.5 111.5,343.5C 112.167,343.5 112.833,343.5 113.5,343.5C 115.513,347.527 117.513,351.527 119.5,355.5C 120.394,361.287 122.894,366.287 127,370.5C 127.008,368.179 126.175,366.179 124.5,364.5C 124.5,363.833 124.5,363.167 124.5,362.5C 127.116,360.517 130.116,359.517 133.5,359.5C 133.833,359.5 134.167,359.5 134.5,359.5C 134.833,360.833 135.167,360.833 135.5,359.5C 135.346,354.711 134.013,350.378 131.5,346.5C 131.614,343.784 130.614,341.784 128.5,340.5C 128.5,339.833 128.5,339.167 128.5,338.5C 130.099,338.768 131.432,338.434 132.5,337.5C 133.404,336.791 133.737,335.791 133.5,334.5 Z"/></g>
<g><path style="opacity:0.722" fill="#9a676c" d="M 110.5,357.5 C 111.496,357.414 112.329,357.748 113,358.5C 114.136,362.243 115.47,365.91 117,369.5C 117.781,370.944 117.614,372.277 116.5,373.5C 115.081,372.995 114.415,371.995 114.5,370.5C 111.419,368.326 109.419,365.326 108.5,361.5C 109.794,362.29 110.961,363.29 112,364.5C 112.135,362.078 111.635,359.745 110.5,357.5 Z"/></g>
<g><path style="opacity:0.998" fill="#ecd7d8" d="M 132.5,355.5 C 132.833,355.5 133.167,355.5 133.5,355.5C 133.5,356.833 133.5,358.167 133.5,359.5C 130.116,359.517 127.116,360.517 124.5,362.5C 124.167,362.5 123.833,362.5 123.5,362.5C 123.5,361.167 123.5,359.833 123.5,358.5C 126.811,358.117 129.811,357.117 132.5,355.5 Z"/></g>
<g><path style="opacity:0.231" fill="#7b5155" d="M 131.5,346.5 C 134.013,350.378 135.346,354.711 135.5,359.5C 135.167,359.5 134.833,359.5 134.5,359.5C 134.167,359.5 133.833,359.5 133.5,359.5C 133.5,358.167 133.5,356.833 133.5,355.5C 132.833,352.5 132.167,349.5 131.5,346.5 Z"/></g>
<g><path style="opacity:0.541" fill="#825558" d="M 147.5,358.5 C 149.684,362.369 151.684,366.369 153.5,370.5C 149.961,367.422 147.961,363.422 147.5,358.5 Z"/></g>
<g><path style="opacity:0.678" fill="#bf565c" d="M 440.5,343.5 C 439.57,350.805 438.903,358.138 438.5,365.5C 437.833,365.5 437.167,365.5 436.5,365.5C 436.334,360.489 436.501,355.489 437,350.5C 437.522,347.719 438.689,345.385 440.5,343.5 Z"/></g>
<g><path style="opacity:0.352" fill="#939393" d="M 601.5,347.5 C 602.196,354.206 603.196,360.873 604.5,367.5C 604.778,369.346 604.111,370.68 602.5,371.5C 601.502,363.528 601.169,355.528 601.5,347.5 Z"/></g>
<g><path style="opacity:1" fill="#d06e71" d="M 395.5,347.5 C 395.001,351.49 394.501,355.49 394,359.5C 393.76,361.852 392.927,363.852 391.5,365.5C 391.916,359.182 393.249,353.182 395.5,347.5 Z"/></g>
<g><path style="opacity:0.104" fill="#71706f" d="M 84.5,348.5 C 85.212,358.704 85.8786,369.037 86.5,379.5C 85.8333,379.5 85.1667,379.5 84.5,379.5C 84.5,369.167 84.5,358.833 84.5,348.5 Z"/></g>
<g><path style="opacity:0.173" fill="#c3aaaa" d="M 345.5,365.5 C 345.384,368.86 345.051,372.193 344.5,375.5C 343.833,375.5 343.167,375.5 342.5,375.5C 342.804,372.478 343.304,369.478 344,366.5C 344.383,365.944 344.883,365.611 345.5,365.5 Z"/></g>
<g><path style="opacity:0.549" fill="#8a6064" d="M 498.5,352.5 C 498.666,357.511 498.499,362.511 498,367.5C 497.722,368.416 497.222,369.082 496.5,369.5C 496.596,363.627 497.263,357.96 498.5,352.5 Z"/></g>
<g><path style="opacity:0.388" fill="#996b72" d="M 163.5,362.5 C 163.111,370.164 162.778,377.83 162.5,385.5C 160.821,385.715 159.821,385.048 159.5,383.5C 160.543,376.444 161.877,369.444 163.5,362.5 Z"/></g>
<g><path style="opacity:0.19" fill="#910319" d="M 245.5,356.5 C 248.22,367.915 250.22,379.582 251.5,391.5C 250.849,390.909 250.182,390.243 249.5,389.5C 247.236,378.645 245.902,367.645 245.5,356.5 Z"/></g>
<g><path style="opacity:0.62" fill="#bf444a" d="M 386.5,359.5 C 386.5,361.5 386.5,363.5 386.5,365.5C 385.509,372.313 385.175,379.313 385.5,386.5C 384.343,378.344 384.177,370.01 385,361.5C 385.278,360.584 385.778,359.918 386.5,359.5 Z"/></g>
<g><path style="opacity:0.129" fill="#989898" d="M 257.5,367.5 C 259.09,367.628 260.423,368.295 261.5,369.5C 262.443,372.4 264.11,374.733 266.5,376.5C 267.348,378.409 267.682,380.409 267.5,382.5C 264.2,377.523 260.867,372.523 257.5,367.5 Z"/></g>
<g><path style="opacity:0.797" fill="#e3c4c9" d="M 87.5,340.5 C 86.5,343.167 85.5,345.833 84.5,348.5C 84.5,358.833 84.5,369.167 84.5,379.5C 70.8333,379.5 57.1667,379.5 43.5,379.5C 43.5,379.167 43.5,378.833 43.5,378.5C 56.8333,378.5 70.1667,378.5 83.5,378.5C 83.3335,367.162 83.5001,355.828 84,344.5C 84.66,342.676 85.8267,341.343 87.5,340.5 Z"/></g>
<g><path style="opacity:0.478" fill="#895e63" d="M 154.5,372.5 C 157.496,375.497 159.163,379.164 159.5,383.5C 156.875,380.302 155.209,376.635 154.5,372.5 Z"/></g>
<g><path style="opacity:0.055" fill="#787878" d="M 616.5,372.5 C 615.903,377.018 614.236,381.018 611.5,384.5C 612.643,380.223 614.309,376.223 616.5,372.5 Z"/></g>
<g><path style="opacity:0.02" fill="#cc989e" d="M 436.5,365.5 C 437.167,365.5 437.833,365.5 438.5,365.5C 438.048,372.831 437.548,380.165 437,387.5C 436.722,388.416 436.222,389.082 435.5,389.5C 435.28,382.457 435.614,375.457 436.5,368.5C 436.5,367.5 436.5,366.5 436.5,365.5 Z"/></g>
<g><path style="opacity:0.035" fill="#d43b48" d="M 43.5,379.5 C 57.1667,379.5 70.8333,379.5 84.5,379.5C 85.1667,379.5 85.8333,379.5 86.5,379.5C 87.5862,379.62 88.2528,380.287 88.5,381.5C 88.2528,382.713 87.5862,383.38 86.5,383.5C 86.1667,383.5 85.8333,383.5 85.5,383.5C 71.5,383.5 57.5,383.5 43.5,383.5C 42.4138,383.38 41.7472,382.713 41.5,381.5C 41.7472,380.287 42.4138,379.62 43.5,379.5 Z"/></g>
<g><path style="opacity:1" fill="#f9f9f9" d="M 43.5,383.5 C 57.5,383.5 71.5,383.5 85.5,383.5C 85.6829,401.837 86.0162,420.17 86.5,438.5C 71.1667,438.5 55.8333,438.5 40.5,438.5C 41.1059,420.089 42.1059,401.755 43.5,383.5 Z"/></g>
<g><path style="opacity:0.31" fill="#e9aeb0" d="M 386.5,365.5 C 386.298,367.95 386.631,370.283 387.5,372.5C 387.334,376.514 387.501,380.514 388,384.5C 388.497,381.854 388.664,379.187 388.5,376.5C 389.775,372.898 390.775,369.231 391.5,365.5C 391.334,372.508 391.5,379.508 392,386.5C 394.139,393.724 395.973,401.058 397.5,408.5C 397.167,408.5 396.833,408.5 396.5,408.5C 395.917,405.053 394.584,402.053 392.5,399.5C 392.5,400.833 392.5,402.167 392.5,403.5C 390.902,401.301 389.568,398.968 388.5,396.5C 387.135,393.264 386.135,389.931 385.5,386.5C 385.175,379.313 385.509,372.313 386.5,365.5 Z M 391.5,396.5 C 391.441,392.954 390.608,389.621 389,386.5C 388.542,389.558 388.876,392.558 390,395.5C 390.383,396.056 390.883,396.389 391.5,396.5 Z"/></g>
<g><path style="opacity:1" fill="#c1828b" d="M 103.5,368.5 C 106.518,370.818 108.851,373.818 110.5,377.5C 111.325,378.386 112.325,378.719 113.5,378.5C 113.032,381.9 114.365,384.233 117.5,385.5C 119.068,389.045 120.068,392.712 120.5,396.5C 114.848,387.203 109.181,377.869 103.5,368.5 Z"/></g>
<g><path style="opacity:0.443" fill="#8d6066" d="M 172.5,364.5 C 172.833,364.5 173.167,364.5 173.5,364.5C 172.779,372.159 173.113,379.826 174.5,387.5C 174.602,391.117 173.935,394.45 172.5,397.5C 172.161,386.442 172.161,375.442 172.5,364.5 Z"/></g>
<g><path style="opacity:0.592" fill="#96676d" d="M 496.5,369.5 C 496.211,376.178 495.711,382.844 495,389.5C 494.722,390.416 494.222,391.082 493.5,391.5C 493.772,383.934 494.772,376.601 496.5,369.5 Z"/></g>
<g><path style="opacity:0.471" fill="#c55459" d="M 436.5,368.5 C 435.614,375.457 435.28,382.457 435.5,389.5C 435.656,397.529 435.323,405.529 434.5,413.5C 433.833,413.5 433.167,413.5 432.5,413.5C 433.665,398.859 434.498,384.193 435,369.5C 435.383,368.944 435.883,368.611 436.5,368.5 Z"/></g>
<g><path style="opacity:0.084" fill="#840112" d="M 687.5,371.5 C 686.597,379.458 686.264,387.458 686.5,395.5C 685.778,395.082 685.278,394.416 685,393.5C 684.333,386.833 684.333,380.167 685,373.5C 685.417,372.244 686.25,371.577 687.5,371.5 Z"/></g>
<g><path style="opacity:0.471" fill="#a0a0a0" d="M 606.5,389.5 C 604.218,393.777 601.551,397.777 598.5,401.5C 599.237,396.391 601.904,392.391 606.5,389.5 Z"/></g>
<g><path style="opacity:0.167" fill="#7c7c7c" d="M 267.5,382.5 C 268.458,382.953 269.292,383.619 270,384.5C 272.252,394.353 273.085,404.353 272.5,414.5C 271.833,416.833 271.167,419.167 270.5,421.5C 272.679,408.201 271.679,395.201 267.5,382.5 Z"/></g>
<g><path style="opacity:0.427" fill="#c98184" d="M 342.5,375.5 C 343.167,375.5 343.833,375.5 344.5,375.5C 339.96,396.62 334.96,417.62 329.5,438.5C 328.5,438.5 327.5,438.5 326.5,438.5C 333.261,417.88 338.594,396.88 342.5,375.5 Z"/></g>
<g><path style="opacity:0.035" fill="#472829" d="M 172.5,397.5 C 172.247,401.04 171.581,404.373 170.5,407.5C 170.159,403.84 170.825,400.507 172.5,397.5 Z"/></g>
<g><path style="opacity:0.847" fill="#cc6464" d="M 388.5,396.5 C 389.568,398.968 390.902,401.301 392.5,403.5C 392.5,404.833 392.5,406.167 392.5,407.5C 391.25,407.423 390.417,406.756 390,405.5C 389.047,402.568 388.547,399.568 388.5,396.5 Z"/></g>
<g><path style="opacity:0.684" fill="#850314" d="M 686.5,398.5 C 687.167,403.833 687.833,409.167 688.5,414.5C 687.5,414.5 686.5,414.5 685.5,414.5C 685.179,408.974 685.512,403.64 686.5,398.5 Z"/></g>
<g><path style="opacity:0.059" fill="#eebfbc" d="M 392.5,403.5 C 393.593,405.349 394.926,407.016 396.5,408.5C 396.263,409.791 396.596,410.791 397.5,411.5C 397.845,414.198 399.178,416.198 401.5,417.5C 401.5,418.5 401.5,419.5 401.5,420.5C 400.778,419.449 399.778,418.782 398.5,418.5C 396.43,414.792 394.43,411.125 392.5,407.5C 392.5,406.167 392.5,404.833 392.5,403.5 Z"/></g>
<g><path style="opacity:0.536" fill="#880517" d="M 192.5,335.5 C 194.407,337.89 195.407,340.723 195.5,344C 198.773,375.41 200.439,406.91 200.5,438.5C 200.167,438.5 199.833,438.5 199.5,438.5C 198.518,411.828 197.352,385.161 196,358.5C 194.636,350.851 193.47,343.185 192.5,335.5 Z"/></g>
<g><path style="opacity:0.208" fill="#82585b" d="M 493.5,391.5 C 493.249,404.094 491.915,416.427 489.5,428.5C 489.784,415.916 491.117,403.582 493.5,391.5 Z"/></g>
<g><path style="opacity:1" fill="#ef919e" d="M 645.5,414.5 C 658.833,414.5 672.167,414.5 685.5,414.5C 686.5,414.5 687.5,414.5 688.5,414.5C 691.022,416.002 691.022,417.335 688.5,418.5C 687.833,418.5 687.167,418.5 686.5,418.5C 673.167,418.5 659.833,418.5 646.5,418.5C 645.5,418.5 644.5,418.5 643.5,418.5C 642.566,417.432 642.232,416.099 642.5,414.5C 643.5,414.5 644.5,414.5 645.5,414.5 Z"/></g>
<g><path style="opacity:0.092" fill="#606060" d="M 594.5,411.5 C 593.321,420.482 593.321,429.482 594.5,438.5C 594.167,438.5 593.833,438.5 593.5,438.5C 592.545,430.186 592.378,421.852 593,413.5C 593.278,412.584 593.778,411.918 594.5,411.5 Z"/></g>
<g><path style="opacity:1" fill="#cb0123" d="M 646.5,418.5 C 659.833,418.5 673.167,418.5 686.5,418.5C 686.868,425.216 687.535,431.883 688.5,438.5C 674.5,438.5 660.5,438.5 646.5,438.5C 646.5,431.833 646.5,425.167 646.5,418.5 Z"/></g>
<g><path style="opacity:0.18" fill="#d0979e" d="M 432.5,413.5 C 433.167,413.5 433.833,413.5 434.5,413.5C 434.388,421.844 434.055,430.178 433.5,438.5C 432.833,438.5 432.167,438.5 431.5,438.5C 432.055,430.178 432.388,421.844 432.5,413.5 Z"/></g>
<g><path style="opacity:0.376" fill="#895c63" d="M 131.5,415.5 C 133.686,416.823 135.186,418.823 136,421.5C 137.16,426.434 137.66,431.434 137.5,436.5C 136.833,436.5 136.167,436.5 135.5,436.5C 136.713,429.104 135.38,422.104 131.5,415.5 Z"/></g>
<g><path style="opacity:0.886" fill="#c45257" d="M 398.5,418.5 C 399.778,418.782 400.778,419.449 401.5,420.5C 402.117,423.355 403.117,426.022 404.5,428.5C 401.283,425.939 399.283,422.605 398.5,418.5 Z"/></g>
<g><path style="opacity:0.137" fill="#e4bbb5" d="M 401.5,420.5 C 402.5,421.167 403.5,421.833 404.5,422.5C 405.63,424.315 406.296,426.315 406.5,428.5C 405.833,428.5 405.167,428.5 404.5,428.5C 403.117,426.022 402.117,423.355 401.5,420.5 Z"/></g>
<g><path style="opacity:0.192" fill="#909090" d="M 85.5,383.5 C 85.8333,383.5 86.1667,383.5 86.5,383.5C 87.1755,401.826 87.5088,420.159 87.5,438.5C 87.1667,438.5 86.8333,438.5 86.5,438.5C 86.0162,420.17 85.6829,401.837 85.5,383.5 Z"/></g>
<g><path style="opacity:0.347" fill="#b6b6b6" d="M 272.5,414.5 C 272.356,422.51 272.023,430.51 271.5,438.5C 271.167,438.5 270.833,438.5 270.5,438.5C 270.5,434.167 270.5,429.833 270.5,425.5C 270.5,424.167 270.5,422.833 270.5,421.5C 271.167,419.167 271.833,416.833 272.5,414.5 Z"/></g>
<g><path style="opacity:0.278" fill="#6e0712" d="M 643.5,418.5 C 644.5,418.5 645.5,418.5 646.5,418.5C 646.5,425.167 646.5,431.833 646.5,438.5C 645.833,438.5 645.167,438.5 644.5,438.5C 644.858,434.342 645.192,430.176 645.5,426C 645.369,423.223 644.702,420.723 643.5,418.5 Z"/></g>
<g><path style="opacity:0.208" fill="#e8aaab" d="M 397.5,408.5 C 399.011,409.502 400.678,410.169 402.5,410.5C 402.575,413.407 403.409,416.073 405,418.5C 407.421,420.551 409.587,422.884 411.5,425.5C 413.386,426.406 415.22,427.406 417,428.5C 417.901,433.501 415.734,436.168 410.5,436.5C 408.776,434.086 407.442,431.42 406.5,428.5C 407.833,428.5 409.167,428.5 410.5,428.5C 408.509,426.543 406.509,424.543 404.5,422.5C 404.727,420.067 403.727,418.401 401.5,417.5C 401.155,414.802 399.822,412.802 397.5,411.5C 397.5,410.5 397.5,409.5 397.5,408.5 Z M 410.5,428.5 C 410.843,430.225 411.843,430.725 413.5,430C 412.473,429.487 411.473,428.987 410.5,428.5 Z"/></g>
<g><path style="opacity:0.412" fill="#6c0315" d="M 686.5,418.5 C 687.167,418.5 687.833,418.5 688.5,418.5C 688.153,425.033 688.487,431.7 689.5,438.5C 689.167,438.5 688.833,438.5 688.5,438.5C 687.535,431.883 686.868,425.216 686.5,418.5 Z"/></g>
<g><path style="opacity:0.112" fill="#636363" d="M 270.5,425.5 C 270.5,429.833 270.5,434.167 270.5,438.5C 269.833,438.5 269.167,438.5 268.5,438.5C 269.051,434.027 269.717,429.693 270.5,425.5 Z"/></g>
<g><path style="opacity:1" fill="#f3e1e1" d="M 170.5,436.5 C 163.626,436.521 156.959,437.187 150.5,438.5C 145.167,438.5 139.833,438.5 134.5,438.5C 134.328,437.508 134.662,436.842 135.5,436.5C 136.167,436.5 136.833,436.5 137.5,436.5C 147.369,436.331 157.203,435.664 167,434.5C 168.699,434.387 169.866,435.053 170.5,436.5 Z"/></g>
<g><path style="opacity:1" fill="#f4b7be" d="M 170.5,436.5 C 170.5,437.167 170.5,437.833 170.5,438.5C 163.833,438.5 157.167,438.5 150.5,438.5C 156.959,437.187 163.626,436.521 170.5,436.5 Z"/></g>
</svg>
